<svg width="256" height="64" viewBox="0 0 256 64" fill="none" xmlns="http://www.w3.org/2000/svg">
<g clip-path="url(#clip0_72_486)">
<mask id="mask0_72_486" style="mask-type:luminance" maskUnits="userSpaceOnUse" x="0" y="0" width="256" height="64">
<path d="M256 0H0V64H256V0Z" fill="white"/>
</mask>
<g mask="url(#mask0_72_486)">
<g opacity="0.98">
<path fill-rule="evenodd" clip-rule="evenodd" d="M32.0643 63.7446C30.0791 63.7446 28.2926 63.1554 26.6053 62.0749C26.2083 61.7803 25.712 61.4856 25.315 61.1909C24.0248 60.2088 22.6352 58.7355 21.2456 58.1461C19.1613 57.164 17.1763 57.3605 14.9927 57.0658C12.8091 56.7711 11.0226 55.8871 9.43457 54.3157C7.94574 52.7441 7.05246 51.0744 6.65545 49.1101C6.15918 46.7527 6.45694 44.2972 5.36516 42.1364C4.86889 41.0561 3.87636 39.9756 3.08233 39.0916C1.29579 36.9308 -0.0937613 34.77 0.00549216 31.9217C0.104746 29.368 0.998026 27.4036 2.58607 25.4392C3.5786 24.2606 4.86889 22.8855 5.56366 21.4123C6.45694 19.2514 6.25844 16.8941 6.7547 14.6351C7.15171 12.6708 8.04499 11.001 9.53383 9.62596C11.0226 8.15267 12.7098 7.2687 14.8935 6.87582C17.3748 6.48295 19.3598 6.87582 21.7419 5.59897C22.1389 5.40254 22.4367 5.2061 22.7344 4.91144C23.8263 3.92925 24.8187 2.84884 26.1091 1.96487C27.8956 0.688022 29.7815 0.000488281 32.0643 0.000488281C33.0567 0.000488281 34.0493 0.196926 34.9426 0.589803C36.7291 1.27734 38.1187 2.45597 39.6075 3.73281C40.5008 4.51856 41.4932 5.40254 42.585 5.79541C43.8754 6.38472 45.3641 6.48295 46.7537 6.58117C48.6395 6.7776 50.426 6.97404 52.1134 7.75979C53.1058 8.25089 53.9991 8.8402 54.6939 9.72418C55.3887 10.51 55.885 11.3939 56.2819 12.3761C56.9767 14.2422 57.1753 16.2067 57.3738 18.2693C57.473 19.3496 57.6715 20.5283 58.1678 21.5105C58.7634 22.6891 60.0536 24.0642 60.8476 25.2428C62.3364 27.2072 63.6267 29.368 63.6267 31.9217C63.6267 33.6896 63.1304 35.2612 62.2371 36.8326C61.0462 38.8952 58.9618 40.6632 58.0686 42.7258C57.5723 43.9044 57.3738 45.3777 57.1753 46.6546C56.9767 48.4225 56.7782 50.0922 56.0834 51.6637C55.5872 52.7441 54.9917 53.7263 54.1977 54.5121C53.3044 55.396 52.2126 56.0836 50.9223 56.4765C48.9373 57.164 47.0515 57.164 45.0664 57.3604C44.0739 57.4587 43.0813 57.655 42.188 58.0479C40.997 58.6372 39.6075 60.0124 38.5156 60.8963C36.7291 62.4678 34.6448 63.7446 32.0643 63.7446ZM32.0643 61.2892C35.8358 61.2892 38.5157 57.3605 41.1956 55.8871C44.8678 53.9228 49.5328 55.6907 52.5104 52.7441C55.3887 49.8957 54.1977 45.4759 55.885 41.6453C57.473 38.1095 61.1454 36.1451 61.1454 31.8235C61.1454 28.1893 57.2745 25.341 55.9842 22.5908C54.1977 18.9568 55.488 14.4387 52.8082 11.2956C50.1282 8.25089 45.4634 9.72418 41.5925 7.95624C38.218 6.48295 35.9351 2.35775 32.0643 2.35775C27.4986 2.35775 25.9106 5.99185 22.7344 7.56336C17.9703 10.0188 14.7942 7.56336 11.1218 11.0992C7.74723 14.4387 9.53383 17.9746 7.74723 22.0997C6.25844 25.5374 2.58607 27.3054 2.48682 31.7253C2.38757 35.4576 6.15918 37.8148 7.64798 40.8596C9.73225 45.1813 7.74723 48.9136 11.2211 52.3512C14.7942 55.8871 18.0696 53.6281 22.3374 55.7889C25.4143 57.4587 27.6971 61.2892 32.0643 61.2892Z" fill="url(#paint0_linear_72_486)"/>
<path fill-rule="evenodd" clip-rule="evenodd" d="M12.9084 34.8684C9.43452 8.84036 47.3492 4.51873 50.8231 28.9752C52.4111 40.3687 44.5701 49.4048 34.9425 50.8781C23.4292 52.6461 14.0994 44.3957 12.9084 34.8684ZM32.0642 61.2894C35.8358 61.2894 38.5157 57.3606 41.1955 55.8873C44.8679 53.9229 49.5327 55.6909 52.5103 52.7443C55.3887 49.896 54.1976 45.476 55.885 41.6456C57.473 38.1096 61.1454 36.1453 61.1454 31.8236C61.1454 28.1896 57.2745 25.3412 55.9842 22.5911C54.1976 18.9569 55.4879 14.4389 52.8081 11.2959C50.1283 8.25106 45.4633 9.72431 41.5925 7.9564C38.2179 6.48311 35.9351 2.35791 32.0642 2.35791C27.4986 2.35791 25.9105 5.99202 22.7344 7.56352C17.9703 10.019 14.7942 7.56352 11.1218 11.0994C7.7472 14.4389 9.53377 17.9747 7.7472 22.1C6.2584 25.5376 2.58604 27.3056 2.48679 31.7254C2.38753 35.4577 6.15915 37.815 7.64794 40.8598C9.73229 45.1814 7.7472 48.9137 11.221 52.3514C14.7942 55.8873 18.0695 53.6282 22.3374 55.7891C25.4142 57.4588 27.697 61.2894 32.0642 61.2894Z" fill="#0073B7"/>
<path fill-rule="evenodd" clip-rule="evenodd" d="M26.903 27.0107H17.2754V36.7343H26.8037L27.1015 46.0652L36.4313 46.2616L36.6298 36.7343H46.3565V27.0107H36.7291L36.5305 17.5816L27.1015 17.4834L26.903 27.0107Z" fill="#0073B7"/>
<path fill-rule="evenodd" clip-rule="evenodd" d="M86.4548 35.7521C86.4548 36.2431 86.1571 36.4396 85.5615 36.4396H82.5839C82.3854 36.4396 82.1869 36.4396 81.9884 36.3414C81.8891 36.2431 81.7899 36.1449 81.7899 35.8503V27.5017C81.7899 27.5017 81.6906 27.5017 81.5914 27.5017C81.3928 28.091 81.1944 28.5821 80.8967 29.1714C80.6981 29.7607 80.4996 30.3501 80.2019 30.8411L78.5146 35.1628C78.4153 35.3592 78.3161 35.5557 78.1176 35.6539C78.0183 35.7521 77.8198 35.8503 77.522 35.8503H75.7355C75.4378 35.8503 75.2392 35.8503 75.0407 35.7521C74.8422 35.7521 74.743 35.5557 74.5444 35.261L72.8572 30.9393L71.5669 27.5017L71.4676 27.4035C71.4676 27.4035 71.3683 27.4035 71.3683 27.5017V35.7521C71.3683 35.9486 71.2691 36.1449 71.1698 36.2431C71.0706 36.3414 70.7728 36.3414 70.5743 36.3414H67.5967C67.0012 36.3414 66.8027 36.1449 66.8027 35.6539V16.6976C66.8027 16.2065 67.1004 16.0101 67.5967 16.0101H70.475C70.6735 16.0101 70.9713 16.0101 71.1698 16.1083C71.3683 16.1083 71.5669 16.403 71.7654 16.6976C72.2616 17.778 72.6587 18.8584 73.1549 20.037C73.6511 21.2157 74.0482 22.296 74.5444 23.3765L76.5295 28.4839C76.6287 28.6803 76.728 28.6803 76.8272 28.4839L78.8123 23.4747L81.5914 16.7958C81.6906 16.5994 81.7899 16.403 82.0876 16.3047C82.2862 16.2065 82.5839 16.1083 82.8817 16.1083H85.4623C86.0578 16.1083 86.3556 16.3047 86.3556 16.7958V35.7521H86.4548ZM103.229 32.2162C103.725 32.2162 103.923 32.5109 103.923 33.002V35.6539C103.923 36.1449 103.725 36.4396 103.229 36.4396H91.4179C90.9212 36.4396 90.6238 36.1449 90.6238 35.6539V16.6976C90.6238 16.2065 90.9212 15.9119 91.4179 15.9119H102.931C103.427 15.9119 103.626 16.1083 103.626 16.5994V19.2513C103.626 19.7423 103.427 20.037 102.931 20.037H96.1813C95.884 20.037 95.5858 20.1352 95.487 20.2335C95.3872 20.3317 95.2884 20.5281 95.2884 20.7246V22.9836C95.2884 23.2783 95.3872 23.4747 95.487 23.6711C95.5858 23.7694 95.7843 23.8676 96.1813 23.8676H101.74C102.038 23.8676 102.236 23.9658 102.335 24.064C102.435 24.1623 102.534 24.3587 102.534 24.6534V27.3053C102.534 27.5017 102.435 27.6982 102.335 27.8945C102.236 27.9927 102.038 28.091 101.74 28.091H96.0825C95.7843 28.091 95.5858 28.1892 95.487 28.2874C95.3872 28.3856 95.3872 28.5821 95.3872 28.7785V31.4304C95.3872 31.7251 95.487 31.9215 95.5858 32.0198C95.6855 32.118 95.9828 32.118 96.3798 32.118H103.229V32.2162ZM114.643 20.2335C114.444 20.2335 114.345 20.3317 114.345 20.4299C114.345 20.5281 114.246 20.6263 114.246 20.7246L113.948 25.0463C113.948 25.5373 113.849 26.1266 113.849 26.7159C113.849 27.3053 113.749 27.9927 113.65 28.5821C113.551 29.2696 113.452 29.859 113.352 30.4483C113.253 31.0375 112.955 31.5287 112.757 32.0198C112.658 32.118 112.658 32.2162 112.757 32.2162C112.856 32.2162 112.856 32.3144 112.955 32.3144H117.719C117.819 32.3144 117.918 32.3144 118.018 32.2162C118.116 32.2162 118.116 32.118 118.116 31.9215V20.6263C118.116 20.3317 117.918 20.1352 117.521 20.1352H114.643V20.2335ZM105.511 36.3414V33.7877C105.511 33.3948 105.511 33.1002 105.611 32.9038C105.71 32.7073 105.908 32.5109 106.305 32.4127L106.901 32.2162C107.397 32.118 107.794 31.8233 108.092 31.4304C108.389 31.0375 108.588 30.4483 108.786 29.859C108.985 29.2696 109.085 28.4839 109.183 27.6982C109.283 26.9124 109.382 25.9302 109.482 24.948L110.077 16.894C110.077 16.5012 110.176 16.3047 110.374 16.2065C110.474 16.1083 110.673 16.0101 111.07 16.0101H122.087C122.384 16.0101 122.583 16.1083 122.682 16.2065C122.781 16.3047 122.881 16.5994 122.881 16.894V32.118C122.881 32.2162 122.98 32.3144 123.079 32.3144H124.072C124.369 32.3144 124.568 32.5109 124.667 32.6091C124.766 32.8055 124.766 33.002 124.766 33.1984V36.3414H105.511ZM140.746 19.3495C140.746 19.546 140.746 19.7423 140.647 19.9388C140.547 20.037 140.349 20.1352 140.15 20.1352H136.677C136.379 20.1352 136.18 20.2335 136.081 20.3317C135.982 20.4299 135.982 20.6263 135.982 20.7246L135.883 35.7521C135.883 36.2431 135.585 36.4396 135.089 36.4396H132.012C131.814 36.4396 131.615 36.3414 131.417 36.2431C131.317 36.1449 131.218 35.9486 131.218 35.7521V20.7246C131.218 20.5281 131.218 20.3317 131.119 20.2335C131.02 20.1352 130.821 20.037 130.523 20.037H127.347C127.05 20.037 126.851 19.9388 126.751 19.8406C126.652 19.7423 126.553 19.546 126.553 19.2513V16.6976C126.553 16.5012 126.652 16.3047 126.751 16.1083C126.851 16.0101 127.05 15.9119 127.347 15.9119H140.25C140.647 15.9119 140.846 16.2065 140.846 16.6976V19.3495H140.746ZM156.13 32.2162C156.627 32.2162 156.825 32.5109 156.825 33.002V35.6539C156.825 36.1449 156.627 36.4396 156.13 36.4396H144.319C143.823 36.4396 143.525 36.1449 143.525 35.6539V16.6976C143.525 16.2065 143.823 15.9119 144.319 15.9119H155.833C156.329 15.9119 156.527 16.1083 156.527 16.5994V19.2513C156.527 19.7423 156.329 20.037 155.833 20.037H149.083C148.786 20.037 148.488 20.1352 148.389 20.2335C148.289 20.3317 148.191 20.5281 148.191 20.7246V22.9836C148.191 23.2783 148.289 23.4747 148.389 23.6711C148.488 23.7694 148.686 23.8676 149.083 23.8676H154.642C154.939 23.8676 155.138 23.9658 155.237 24.064C155.336 24.1623 155.436 24.3587 155.436 24.6534V27.3053C155.436 27.5017 155.336 27.6982 155.237 27.8945C155.138 27.9927 154.939 28.091 154.642 28.091H148.985C148.686 28.091 148.488 28.1892 148.389 28.2874C148.289 28.3856 148.289 28.5821 148.289 28.7785V31.4304C148.289 31.7251 148.389 31.9215 148.488 32.0198C148.588 32.118 148.885 32.118 149.282 32.118H156.13V32.2162ZM166.552 20.8228C166.651 21.1175 166.75 21.1175 166.949 20.8228L168.934 16.5994C169.132 16.1083 169.629 15.9119 170.125 15.9119H173.698C174.095 15.9119 174.294 16.0101 174.294 16.2065C174.294 16.403 174.195 16.6976 174.095 16.894L169.828 24.8498C169.728 25.0462 169.629 25.3408 169.629 25.5373C169.629 25.7337 169.728 26.0284 169.828 26.3231L174.989 35.5557C175.088 35.7521 175.187 36.0468 174.989 36.2431C174.889 36.4396 174.691 36.5378 174.294 36.5378H170.72C170.423 36.5378 170.225 36.5378 170.026 36.4396C169.828 36.3414 169.728 36.1449 169.529 35.8503L166.85 30.2519C166.75 30.1536 166.75 30.0554 166.651 30.0554C166.552 30.0554 166.453 30.1536 166.353 30.2519L163.674 35.8503C163.475 36.1449 163.277 36.3414 163.178 36.4396C162.979 36.5378 162.781 36.5378 162.483 36.5378H158.909C158.414 36.5378 158.215 36.4396 158.215 36.1449C158.215 35.9486 158.215 35.6539 158.414 35.3592L163.376 26.5195C163.575 26.1266 163.674 25.8319 163.674 25.6355C163.674 25.4391 163.575 25.0463 163.376 24.7516L159.009 16.9922C158.811 16.6976 158.811 16.5012 158.909 16.3047C159.009 16.1083 159.208 16.0101 159.505 16.0101H163.178C163.376 16.0101 163.674 16.1083 163.872 16.2065C164.071 16.3047 164.269 16.5012 164.368 16.7958L166.552 20.8228ZM187.891 16.5994C187.891 16.403 187.991 16.2065 188.09 16.1083C188.19 16.0101 188.487 16.0101 188.685 16.0101H191.763C192.06 16.0101 192.259 16.0101 192.358 16.1083C192.457 16.2065 192.557 16.403 192.557 16.5994V35.8503C192.557 36.3414 192.259 36.5378 191.763 36.5378H188.685C188.09 36.5378 187.891 36.3414 187.891 35.8503V28.8767C187.891 28.6803 187.792 28.3856 187.693 28.2874C187.594 28.091 187.395 28.091 186.998 28.091H182.928C182.531 28.091 182.234 28.1892 182.234 28.2874C182.134 28.3856 182.134 28.5821 182.134 28.8767V35.8503C182.134 36.3414 181.837 36.5378 181.34 36.5378H178.264C177.668 36.5378 177.47 36.3414 177.47 35.8503V16.5994C177.47 16.403 177.57 16.2065 177.668 16.1083C177.768 16.0101 178.065 16.0101 178.264 16.0101H181.34C181.539 16.0101 181.837 16.0101 181.936 16.1083C182.134 16.2065 182.134 16.403 182.134 16.5994V22.9836C182.134 23.3765 182.134 23.5729 182.234 23.6711C182.333 23.7694 182.531 23.8676 182.83 23.8676H187.197C187.494 23.8676 187.693 23.7694 187.792 23.6711C187.891 23.5729 187.891 23.2783 187.891 22.9836V16.5994ZM211.613 30.2519C211.613 31.234 211.415 32.118 211.018 32.9038C210.62 33.6895 210.124 34.377 209.429 34.8681C208.734 35.4575 207.94 35.8503 207.047 36.1449C206.154 36.4396 205.162 36.636 204.07 36.636C202.978 36.636 202.084 36.4396 201.192 36.1449C200.298 35.8503 199.504 35.4575 198.809 34.8681C198.114 34.2788 197.618 33.6895 197.221 32.9038C196.824 32.118 196.626 31.234 196.626 30.2519V22.0997C196.626 21.1175 196.824 20.2335 197.221 19.4478C197.618 18.662 198.114 17.9744 198.71 17.3851C199.405 16.7959 200.099 16.403 200.993 16.1083C201.886 15.8136 202.879 15.6172 203.971 15.6172C205.062 15.6172 205.956 15.8136 206.948 16.1083C207.841 16.403 208.635 16.7959 209.33 17.3851C210.025 17.9744 210.521 18.662 210.918 19.4478C211.315 20.2335 211.513 21.1175 211.513 22.0997V30.2519H211.613ZM206.75 22.0997C206.75 21.5103 206.551 21.0192 206.154 20.5281C205.757 20.037 205.162 19.8406 204.169 19.8406C203.276 19.8406 202.68 20.037 202.184 20.5281C201.687 21.0192 201.489 21.5103 201.489 22.0997V30.2519C201.489 30.8411 201.687 31.3322 202.184 31.7251C202.581 32.2162 203.276 32.4127 204.07 32.4127C204.864 32.4127 205.459 32.2162 205.956 31.7251C206.452 31.3322 206.65 30.7429 206.65 30.2519V22.0997H206.75Z" fill="#0073B7"/>
<path fill-rule="evenodd" clip-rule="evenodd" d="M236.724 22.6889C236.724 23.5729 236.526 24.3586 236.228 25.0461C235.93 25.7337 235.434 26.4212 234.838 26.9123C234.243 27.4034 233.548 27.8945 232.754 28.1891C231.96 28.4838 231.066 28.582 230.074 28.582H227.791C227.593 28.582 227.394 28.582 227.394 28.6803C227.295 28.7785 227.295 28.8767 227.295 29.0731V36.1449C227.295 36.636 226.997 36.8324 226.501 36.8324H223.324C222.729 36.8324 222.531 36.636 222.531 36.1449V17.0904C222.531 16.5993 222.829 16.4028 223.324 16.4028H230.074C231.066 16.4028 231.96 16.5993 232.853 16.8939C233.647 17.1886 234.342 17.5815 234.938 18.1708C235.533 18.7601 235.93 19.3494 236.327 20.1352C236.526 20.921 236.724 21.8049 236.724 22.6889ZM231.96 22.5907C231.96 22.0013 231.762 21.6084 231.463 21.2156C231.166 20.8227 230.669 20.6263 230.074 20.6263H227.89C227.593 20.6263 227.394 20.7245 227.394 20.8227C227.295 20.921 227.295 21.1174 227.295 21.3138V23.6711C227.295 23.9658 227.394 24.1621 227.493 24.2603C227.593 24.3586 227.791 24.4568 227.99 24.4568H230.174C230.769 24.4568 231.166 24.2603 231.563 23.8675C231.762 23.5729 231.96 23.0818 231.96 22.5907ZM248.337 32.609C248.039 33.493 247.741 34.1805 247.443 34.7699C247.146 35.3591 246.749 35.9484 246.352 36.3413C245.955 36.7342 245.359 37.0289 244.764 37.2253C244.168 37.4218 243.374 37.52 242.382 37.52H240.992C240.793 37.52 240.595 37.52 240.495 37.4218C240.396 37.3235 240.297 37.1271 240.297 36.9307V34.377C240.297 34.1805 240.396 33.9841 240.495 33.8859C240.595 33.7876 240.694 33.7876 240.892 33.7876H241.488C241.985 33.7876 242.382 33.6894 242.679 33.5912C242.977 33.493 243.176 33.1983 243.374 32.9036C243.473 32.7072 243.573 32.5107 243.573 32.4125C243.573 32.3143 243.671 32.1179 243.671 32.0197C243.671 31.9215 243.671 31.8233 243.573 31.6268C243.573 31.5286 243.473 31.3322 243.473 31.2339L238.51 17.3851C238.411 17.0904 238.411 16.8939 238.51 16.6975C238.61 16.5011 238.907 16.4028 239.304 16.4028H242.282C242.58 16.4028 242.877 16.4028 243.076 16.5011C243.274 16.5993 243.374 16.7957 243.473 17.0904L246.054 26.0283C246.054 26.2248 246.153 26.2248 246.252 26.2248C246.352 26.2248 246.352 26.1266 246.352 26.0283L249.23 17.0904C249.33 16.7957 249.528 16.5993 249.627 16.5993C249.825 16.5011 250.124 16.5011 250.521 16.5011H253.399C253.894 16.5011 254.093 16.5993 254.193 16.7957C254.291 16.9922 254.291 17.1886 254.193 17.4833L248.337 32.609Z" fill="#97C21A"/>
<path d="M219.752 31.627H214.689V36.6361H219.752V31.627Z" fill="#97C21A"/>
<path d="M255.384 39.8774H67.6963V41.3508H255.384V39.8774Z" fill="#0073B7"/>
<path fill-rule="evenodd" clip-rule="evenodd" d="M67.001 8.84015C67.001 10.0188 67.6958 11.0009 69.1845 11.0009C69.7801 11.0009 70.9711 10.8045 70.9711 10.2152C70.9711 10.0188 70.7726 9.72413 70.3756 9.72413C70.2763 9.72413 70.1771 9.72413 70.0778 9.82235C69.7801 9.92058 69.5815 10.0188 69.2838 10.0188C68.4898 10.0188 68.192 9.62591 68.192 8.93835V7.26864C68.192 6.58111 68.4898 6.18823 69.2838 6.18823C69.6808 6.18823 69.8793 6.28645 70.0778 6.38467C70.1771 6.38467 70.2763 6.38467 70.3756 6.38467C70.7726 6.38467 70.9711 6.18823 70.9711 5.89357C70.9711 5.20604 69.7801 5.10782 69.1845 5.10782C67.6958 5.10782 67.001 5.99179 67.001 7.17042V8.84015ZM79.6061 6.77754C79.6061 5.89357 78.9114 5.20604 77.5218 5.20604H76.033C75.636 5.20604 75.4375 5.5007 75.4375 5.79536V10.3135C75.4375 10.6081 75.7352 10.9027 76.033 10.9027H77.7203C79.1099 10.9027 79.8047 10.2152 79.8047 9.33124C79.8047 8.74193 79.5069 8.25083 78.8121 8.0544C79.3084 7.75974 79.6061 7.36686 79.6061 6.77754ZM78.5143 9.1348C78.5143 9.62591 78.2166 9.82235 77.621 9.82235H76.6286V8.44727H77.5218C78.3158 8.44727 78.5143 8.84015 78.5143 9.1348ZM76.6286 6.18823H77.5218C78.1173 6.18823 78.4151 6.38467 78.4151 6.87577C78.4151 7.17042 78.3158 7.5633 77.621 7.5633H76.7278V6.18823H76.6286ZM83.7747 7.66152C83.477 7.5633 83.08 7.5633 82.7823 7.5633C81.3927 7.5633 80.6979 8.15261 80.6979 9.23302C80.6979 10.3135 81.2934 11.0009 82.5837 11.0009C83.1792 11.0009 83.6755 10.8045 84.1717 10.4117C84.3703 10.8045 84.668 10.9027 85.0651 10.9027C85.4621 10.9027 85.7598 10.7064 85.7598 10.4117C85.7598 10.2152 85.6606 10.0188 85.4621 10.0188C85.2636 10.0188 85.1643 9.92058 85.1643 9.62591V7.36686C85.1643 5.89358 84.5688 5.10782 82.9808 5.10782C82.0875 5.10782 81.1942 5.30426 81.1942 5.89357C81.1942 6.09002 81.2934 6.38467 81.6904 6.38467C81.7897 6.38467 81.8889 6.38467 81.9882 6.28645L82.1867 6.18823C82.3852 6.09002 82.5837 6.09001 82.8815 6.09001C83.5762 6.09001 83.9732 6.38467 83.9732 7.0722V7.66152H83.7747ZM82.7823 8.44727C83.08 8.44727 83.477 8.44727 83.7747 8.54549V9.52769C83.3777 9.82235 83.08 9.92058 82.683 9.92058C82.0875 9.92058 81.7897 9.62591 81.7897 9.23302C81.8889 8.74193 81.9882 8.44727 82.7823 8.44727ZM89.6307 10.0188C89.9284 10.0188 90.1269 9.92058 90.2266 9.72413L91.4168 7.66152V10.5099C91.4168 10.8045 91.715 11.0992 92.0124 11.0992C92.3106 11.0992 92.6079 10.8045 92.6079 10.5099V5.69714C92.6079 5.30426 92.3106 5.10782 91.9135 5.10782C91.6153 5.10782 91.4168 5.20604 91.318 5.5007L89.6307 8.54549L87.9434 5.5007C87.8441 5.30426 87.6456 5.10782 87.3479 5.10782C86.9508 5.10782 86.6531 5.40248 86.6531 5.69714V10.4117C86.6531 10.7064 86.9508 11.0009 87.2486 11.0009C87.5464 11.0009 87.8441 10.7064 87.8441 10.4117V7.5633L89.0351 9.62591C89.1344 9.82235 89.4321 10.0188 89.6307 10.0188ZM94.8912 11.0009C95.0897 11.0009 95.3871 10.9027 95.4868 10.7064L97.6704 7.26864V10.4117C97.6704 10.7064 97.9677 11.0009 98.2659 11.0009C98.5633 11.0009 98.8615 10.7064 98.8615 10.4117V5.69714C98.8615 5.30426 98.5633 5.10782 98.1662 5.10782C97.8689 5.10782 97.6704 5.20604 97.5707 5.40248L95.3871 8.84015V5.69714C95.3871 5.40248 95.0897 5.10782 94.7915 5.10782C94.3945 5.10782 94.196 5.40248 94.196 5.69714V10.3135C94.196 10.7064 94.4942 11.0009 94.8912 11.0009ZM103.626 8.84015C103.626 10.0188 104.32 11.0009 105.809 11.0009C106.404 11.0009 107.595 10.8045 107.595 10.2152C107.595 10.0188 107.397 9.72413 107 9.72413C106.901 9.72413 106.801 9.72413 106.702 9.82235C106.404 9.92058 106.206 10.0188 105.908 10.0188C105.114 10.0188 104.816 9.62591 104.816 8.93835V7.26864C104.816 6.58111 105.114 6.18823 105.908 6.18823C106.305 6.18823 106.504 6.28645 106.702 6.38467C106.801 6.38467 106.901 6.38467 107 6.38467C107.397 6.38467 107.595 6.18823 107.595 5.89357C107.595 5.20604 106.404 5.10782 105.809 5.10782C104.32 5.10782 103.626 5.99179 103.626 7.17042V8.84015ZM116.727 10.3135C116.727 10.0188 116.429 9.72413 116.131 9.72413H113.253C113.849 8.74193 114.94 7.95617 115.834 6.97399C116.33 6.48289 116.727 5.79536 116.727 4.91138C116.727 3.73275 115.834 2.65234 114.246 2.65234C113.352 2.65234 111.864 3.04522 111.864 3.73275C111.864 4.02741 112.161 4.32207 112.459 4.32207C112.756 4.32207 112.955 4.12563 113.153 4.02741C113.452 3.9292 113.749 3.83097 114.146 3.83097C114.94 3.83097 115.337 4.42029 115.337 5.10782C115.337 6.09001 114.345 6.77754 113.65 7.46508C112.856 8.15261 112.161 8.93835 111.665 9.82235C111.565 9.92058 111.565 10.117 111.565 10.3135C111.565 10.7064 111.864 10.9027 112.161 10.9027H115.933C116.429 10.9027 116.727 10.6081 116.727 10.3135ZM120.101 3.83097C120.994 3.83097 121.292 4.42029 121.292 5.30426V8.64371C121.292 9.42946 120.895 9.92058 120.101 9.92058C119.307 9.92058 118.91 9.42946 118.91 8.64371V5.30426C118.91 4.42029 119.209 3.83097 120.101 3.83097ZM120.101 2.75057C118.414 2.75057 117.62 3.9292 117.62 5.40248V8.64371C117.62 10.0188 118.513 11.0992 120.101 11.0992C121.689 11.0992 122.582 10.0188 122.582 8.64371V5.30426C122.582 3.9292 121.788 2.75057 120.101 2.75057ZM126.057 3.83097C126.95 3.83097 127.248 4.42029 127.248 5.30426V8.64371C127.248 9.42946 126.851 9.92058 126.057 9.92058C125.263 9.92058 124.866 9.42946 124.866 8.64371V5.30426C124.766 4.42029 125.163 3.83097 126.057 3.83097ZM126.057 2.75057C124.369 2.75057 123.575 3.9292 123.575 5.40248V8.64371C123.575 10.0188 124.469 11.0992 126.057 11.0992C127.645 11.0992 128.538 10.0188 128.538 8.64371V5.30426C128.439 3.9292 127.744 2.75057 126.057 2.75057ZM134.393 10.3135C134.393 10.0188 134.096 9.72413 133.799 9.72413H131.02C131.615 8.74193 132.706 7.95617 133.6 6.97399C134.096 6.48289 134.493 5.79536 134.493 4.91138C134.493 3.73275 133.6 2.65234 132.012 2.65234C131.118 2.65234 129.63 3.04522 129.63 3.73275C129.63 4.02741 129.927 4.32207 130.226 4.32207C130.523 4.32207 130.721 4.12563 130.92 4.02741C131.218 3.9292 131.515 3.83097 131.912 3.83097C132.706 3.83097 133.104 4.42029 133.104 5.10782C133.104 6.09001 132.111 6.77754 131.417 7.46508C130.623 8.15261 129.927 8.93835 129.431 9.82235C129.332 9.92058 129.332 10.117 129.332 10.3135C129.332 10.7064 129.63 10.9027 129.927 10.9027H133.699C134.195 10.9027 134.393 10.6081 134.393 10.3135ZM140.349 6.18823H142.235C142.532 6.18823 142.831 5.99179 142.831 5.69714C142.831 5.40248 142.532 5.20604 142.235 5.20604H139.654C139.356 5.20604 139.059 5.40248 139.059 5.69714V10.4117C139.059 10.7064 139.356 11.0009 139.654 11.0009C139.952 11.0009 140.25 10.7064 140.25 10.4117V6.18823H140.349ZM145.709 11.0009C147.198 11.0009 147.992 10.117 147.992 8.93835V7.17042C147.992 5.99179 147.198 5.10782 145.709 5.10782C144.22 5.10782 143.426 5.99179 143.426 7.17042V8.93835C143.426 10.0188 144.22 11.0009 145.709 11.0009ZM145.709 9.92058C145.014 9.92058 144.617 9.52769 144.617 8.93835V7.0722C144.617 6.48289 145.014 6.09001 145.709 6.09001C146.404 6.09001 146.801 6.48289 146.801 7.0722V8.84015C146.801 9.52769 146.404 9.92058 145.709 9.92058ZM153.351 5.20604H150.572C150.373 5.20604 150.076 5.40248 150.076 5.79536L149.976 7.85795C149.976 8.74193 149.778 9.42946 149.48 9.82235H149.282C148.885 9.82235 148.686 10.117 148.686 10.4117V11.8849C148.686 12.1796 148.984 12.4743 149.282 12.4743C149.679 12.4743 149.877 12.0814 149.877 11.6885V10.9027H153.351V11.6885C153.351 12.0814 153.549 12.4743 153.946 12.4743C154.245 12.4743 154.542 12.1796 154.542 11.8849V10.4117C154.542 10.117 154.343 9.82235 153.946 9.82235H153.748V5.79536C153.946 5.5007 153.748 5.20604 153.351 5.20604ZM152.657 9.82235H150.671C150.969 9.33124 151.068 8.64371 151.068 7.85795L151.167 6.09001H152.657V9.82235ZM158.413 7.66152C158.115 7.5633 157.718 7.5633 157.421 7.5633C156.031 7.5633 155.336 8.15261 155.336 9.23302C155.336 10.3135 155.932 11.0009 157.222 11.0009C157.818 11.0009 158.314 10.8045 158.81 10.4117C159.009 10.8045 159.306 10.9027 159.703 10.9027C160.1 10.9027 160.398 10.7064 160.398 10.4117C160.398 10.2152 160.299 10.0188 160.1 10.0188C159.902 10.0188 159.803 9.92058 159.803 9.62591V7.36686C159.803 5.89358 159.207 5.10782 157.619 5.10782C156.726 5.10782 155.833 5.30426 155.833 5.89357C155.833 6.09002 155.932 6.38467 156.329 6.38467C156.428 6.38467 156.527 6.38467 156.627 6.28645L156.825 6.18823C157.024 6.09002 157.222 6.09001 157.52 6.09001C158.215 6.09001 158.612 6.38467 158.612 7.0722V7.66152H158.413ZM157.52 8.44727C157.818 8.44727 158.215 8.44727 158.512 8.54549V9.52769C158.115 9.82235 157.818 9.92058 157.421 9.92058C156.825 9.92058 156.527 9.62591 156.527 9.23302C156.527 8.74193 156.627 8.44727 157.52 8.44727Z" fill="#0073B7"/>
</g>
<path d="M70.7096 50.3026V55.1693C70.7096 55.5559 70.3863 55.8493 69.9821 55.8493C69.5644 55.8493 69.2545 55.5559 69.2545 55.1693V50.3026H68.0553C67.6646 50.3026 67.3682 50.0226 67.3682 49.6626C67.3682 49.2893 67.6646 49.0093 68.0553 49.0093H71.9088C72.2861 49.0093 72.596 49.2893 72.596 49.6626C72.596 50.0226 72.2861 50.3026 71.9088 50.3026H70.7096Z" fill="#0073B7"/>
<path d="M79.5586 55.8492C77.7801 55.8492 76.8369 54.7825 76.8369 53.4225V51.3158C76.8369 49.9425 77.7801 48.8892 79.5586 48.8892C81.3371 48.8892 82.2803 49.9425 82.2803 51.3158V53.4225C82.2803 54.7825 81.3371 55.8492 79.5586 55.8492ZM79.5586 54.5825C80.394 54.5825 80.8251 54.1425 80.8251 53.4225V51.3025C80.8251 50.5958 80.394 50.1558 79.5586 50.1558C78.7232 50.1558 78.2921 50.5958 78.2921 51.3025V53.4225C78.2921 54.1425 78.7232 54.5825 79.5586 54.5825Z" fill="#0073B7"/>
<path d="M92.1445 50.8893C92.1445 51.5426 91.8347 52.0093 91.0532 52.3159C91.9155 52.6359 92.2793 53.1426 92.2793 53.8626C92.2793 54.9559 91.4709 55.7426 89.8405 55.7426H87.9004C87.4827 55.7426 87.1729 55.4359 87.1729 55.0759V49.6893C87.1729 49.3293 87.4827 49.0093 87.9004 49.0093H89.7059C91.3496 49.0093 92.1445 49.8226 92.1445 50.8893ZM90.8376 53.7426C90.8376 53.3159 90.649 52.8626 89.679 52.8626H88.628V54.6093H89.8137C90.4873 54.6093 90.8376 54.3426 90.8376 53.7426ZM88.628 50.1559V51.8093H89.7059C90.5412 51.8093 90.7029 51.4093 90.7029 51.0226C90.7029 50.4226 90.3391 50.1559 89.679 50.1559H88.628Z" fill="#0073B7"/>
<path d="M100.475 51.889V51.3023C100.475 50.5157 100.071 50.129 99.2353 50.129C98.885 50.129 98.6694 50.209 98.4404 50.3023L98.1844 50.409C98.1035 50.449 97.9553 50.4757 97.834 50.4757C97.4433 50.4757 97.2816 50.169 97.2816 49.889C97.2816 49.1823 98.3191 48.9023 99.37 48.9023C101.189 48.9023 101.93 49.849 101.93 51.6223V54.329C101.93 54.6623 102.065 54.7157 102.267 54.7557C102.55 54.809 102.671 54.9823 102.671 55.2357C102.671 55.609 102.388 55.7957 101.876 55.7957C101.405 55.7957 101.054 55.609 100.798 55.1957C100.3 55.6223 99.7069 55.8357 98.9658 55.8357C97.4972 55.8357 96.7427 55.0223 96.7427 53.7823V53.7423C96.7427 52.409 97.578 51.729 99.2623 51.729C99.6799 51.729 100.084 51.7823 100.475 51.889ZM99.3027 52.8223C98.3595 52.8223 98.1844 53.249 98.1844 53.7557V53.7957C98.1844 54.329 98.4538 54.6357 99.1949 54.6357C99.653 54.6357 100.057 54.5023 100.475 54.169V52.969C100.084 52.8757 99.6395 52.8223 99.3027 52.8223Z" fill="#0073B7"/>
<path d="M110.095 55.8357C109.678 55.8357 109.246 55.769 108.761 55.569V57.929C108.761 58.3023 108.492 58.5957 108.034 58.5957C107.562 58.5957 107.306 58.289 107.306 57.929V50.9023C107.306 50.529 107.252 50.329 107.118 50.129C107.037 50.0223 106.983 49.929 106.983 49.7823C106.983 49.3957 107.333 49.1423 107.657 49.1423C107.913 49.1423 108.115 49.2757 108.276 49.489C108.896 49.1423 109.502 48.9023 110.203 48.9023C111.685 48.9023 112.507 49.9423 112.507 51.4623V53.1023C112.507 54.689 111.914 55.8357 110.095 55.8357ZM108.761 50.9023V54.3957C109.179 54.5557 109.637 54.6223 109.934 54.6223C110.756 54.6223 111.052 54.1423 111.052 53.1023V51.4623C111.052 50.5957 110.688 50.1423 109.961 50.1423C109.583 50.1423 109.152 50.2757 108.708 50.5023C108.734 50.649 108.761 50.7823 108.761 50.9023Z" fill="#0073B7"/>
<path d="M124.834 55.169C124.834 55.5557 124.511 55.849 124.107 55.849C123.689 55.849 123.379 55.5557 123.379 55.169V49.609C123.379 49.249 123.689 48.9424 124.107 48.9424C124.511 48.9424 124.834 49.249 124.834 49.609V55.169ZM118.852 49.609V51.609H120.092C121.897 51.609 122.638 52.369 122.638 53.7157C122.638 54.9157 121.843 55.7424 120.267 55.7424H118.125C117.707 55.7424 117.397 55.4357 117.397 55.0757V49.609C117.397 49.249 117.707 48.9424 118.125 48.9424C118.529 48.9424 118.852 49.249 118.852 49.609ZM120.092 52.809H118.852V54.5424H120.24C120.86 54.5424 121.197 54.2624 121.197 53.6757C121.197 53.249 121.021 52.809 120.092 52.809Z" fill="#0073B7"/>
<path d="M142.272 49.0093C142.73 49.0093 142.932 49.3959 142.932 49.6893V54.5559H143.161C143.619 54.5559 143.821 54.9293 143.821 55.2226V56.9293C143.821 57.2626 143.485 57.6093 143.094 57.6093C142.555 57.6093 142.366 57.1826 142.366 56.7026V55.7426H138.243V56.7026C138.243 57.1693 138.041 57.6093 137.516 57.6093C137.098 57.6093 136.788 57.3159 136.788 56.9293V55.2226C136.788 54.9026 137.017 54.5559 137.448 54.5559H137.691C138.028 54.1293 138.216 53.3293 138.27 52.2359L138.391 49.6759C138.405 49.2626 138.755 49.0093 139.038 49.0093H142.272ZM141.477 54.5559V50.2093H139.739L139.658 52.2493C139.618 53.1826 139.456 53.9826 139.146 54.5559H141.477Z" fill="#0073B7"/>
<path d="M153.936 55.1693C153.936 55.5559 153.612 55.8359 153.208 55.8359C152.79 55.8359 152.48 55.5559 152.48 55.1693V50.2093H150.715C150.621 51.3159 150.54 52.4093 150.446 53.5159C150.338 54.9026 149.813 55.7959 148.627 55.7959C148.129 55.7959 147.603 55.7026 147.603 55.1826C147.603 54.7559 147.913 54.5293 148.223 54.5293C148.344 54.5293 148.371 54.5559 148.479 54.5559C148.829 54.5559 148.977 54.2359 149.045 53.5693L149.395 49.6759C149.435 49.2759 149.718 49.0093 150.042 49.0093H153.275C153.734 49.0093 153.936 49.3959 153.936 49.6893V55.1693Z" fill="#0073B7"/>
<path d="M163.391 55.8493C162.973 55.8493 162.663 55.5426 162.663 55.1693V53.1426H161.787L160.117 55.5293C159.955 55.7426 159.766 55.8493 159.524 55.8493C159.12 55.8493 158.837 55.6226 158.823 55.2626C158.823 55.1426 158.864 54.9693 158.931 54.8626L160.265 52.9959C159.281 52.7159 158.877 52.0493 158.877 51.0493C158.877 49.8359 159.686 49.0093 161.316 49.0093H163.391C163.795 49.0093 164.118 49.3293 164.118 49.6893V55.1693C164.118 55.5426 163.795 55.8493 163.391 55.8493ZM160.319 51.0893C160.319 51.5026 160.494 51.9559 161.491 51.9559H162.663V50.2226H161.343C160.669 50.2226 160.319 50.4893 160.319 51.0893Z" fill="#0073B7"/>
<path d="M180.929 50.809C180.929 51.529 180.579 52.0357 179.73 52.3023C180.673 52.5557 181.064 53.0757 181.064 53.8757C181.064 55.0357 180.229 55.8357 178.558 55.8357C177.79 55.8357 176.281 55.6757 176.281 54.9023C176.281 54.6223 176.483 54.2757 176.901 54.2757C177.049 54.2757 177.184 54.329 177.237 54.3557C177.588 54.5023 177.978 54.649 178.558 54.649C179.232 54.649 179.636 54.449 179.636 53.7823C179.636 53.4623 179.528 52.9957 178.005 52.889C177.695 52.8623 177.399 52.7557 177.399 52.329C177.399 51.8223 177.871 51.809 178.208 51.769C179.393 51.649 179.501 51.1157 179.501 50.8357C179.501 50.3557 179.178 50.089 178.463 50.089C177.817 50.089 177.561 50.369 177.157 50.3823C176.537 50.409 176.415 49.969 176.415 49.7957C176.415 49.1157 177.682 48.9023 178.517 48.9023C180.121 48.9023 180.929 49.7023 180.929 50.809Z" fill="#0073B7"/>
<path d="M190.681 49.0093C191.139 49.0093 191.341 49.3959 191.341 49.6893V54.5559H191.57C192.028 54.5559 192.23 54.9293 192.23 55.2226V56.9293C192.23 57.2626 191.893 57.6093 191.502 57.6093C190.964 57.6093 190.775 57.1826 190.775 56.7026V55.7426H186.652V56.7026C186.652 57.1693 186.45 57.6093 185.924 57.6093C185.507 57.6093 185.197 57.3159 185.197 56.9293V55.2226C185.197 54.9026 185.426 54.5559 185.857 54.5559H186.1C186.436 54.1293 186.625 53.3293 186.679 52.2359L186.8 49.6759C186.814 49.2626 187.164 49.0093 187.447 49.0093H190.681ZM189.886 54.5559V50.2093H188.148L188.067 52.2493C188.026 53.1826 187.865 53.9826 187.555 54.5559H189.886Z" fill="#0073B7"/>
<path d="M199.164 55.8492C197.385 55.8492 196.442 54.7825 196.442 53.4225V51.3158C196.442 49.9425 197.385 48.8892 199.164 48.8892C200.942 48.8892 201.885 49.9425 201.885 51.3158V53.4225C201.885 54.7825 200.942 55.8492 199.164 55.8492ZM199.164 54.5825C199.999 54.5825 200.43 54.1425 200.43 53.4225V51.3025C200.43 50.5958 199.999 50.1558 199.164 50.1558C198.328 50.1558 197.897 50.5958 197.897 51.3025V53.4225C197.897 54.1425 198.328 54.5825 199.164 54.5825Z" fill="#0073B7"/>
<path d="M209.621 55.8357C209.203 55.8357 208.772 55.769 208.287 55.569V57.929C208.287 58.3023 208.017 58.5957 207.559 58.5957C207.088 58.5957 206.832 58.289 206.832 57.929V50.9023C206.832 50.529 206.778 50.329 206.643 50.129C206.562 50.0223 206.508 49.929 206.508 49.7823C206.508 49.3957 206.859 49.1423 207.182 49.1423C207.438 49.1423 207.64 49.2757 207.802 49.489C208.422 49.1423 209.028 48.9023 209.729 48.9023C211.211 48.9023 212.033 49.9423 212.033 51.4623V53.1023C212.033 54.689 211.44 55.8357 209.621 55.8357ZM208.287 50.9023V54.3957C208.705 54.5557 209.163 54.6223 209.459 54.6223C210.281 54.6223 210.577 54.1423 210.577 53.1023V51.4623C210.577 50.5957 210.214 50.1423 209.486 50.1423C209.109 50.1423 208.678 50.2757 208.233 50.5023C208.26 50.649 208.287 50.7823 208.287 50.9023Z" fill="#0073B7"/>
<path d="M219.334 55.8492C217.556 55.8492 216.613 54.7825 216.613 53.4225V51.3158C216.613 49.9425 217.556 48.8892 219.334 48.8892C221.113 48.8892 222.056 49.9425 222.056 51.3158V53.4225C222.056 54.7825 221.113 55.8492 219.334 55.8492ZM219.334 54.5825C220.17 54.5825 220.601 54.1425 220.601 53.4225V51.3025C220.601 50.5958 220.17 50.1558 219.334 50.1558C218.499 50.1558 218.068 50.5958 218.068 51.3025V53.4225C218.068 54.1425 218.499 54.5825 219.334 54.5825Z" fill="#0073B7"/>
<path d="M231.921 50.8893C231.921 51.5426 231.611 52.0093 230.829 52.3159C231.691 52.6359 232.055 53.1426 232.055 53.8626C232.055 54.9559 231.247 55.7426 229.617 55.7426H227.676C227.259 55.7426 226.949 55.4359 226.949 55.0759V49.6893C226.949 49.3293 227.259 49.0093 227.676 49.0093H229.482C231.126 49.0093 231.921 49.8226 231.921 50.8893ZM230.614 53.7426C230.614 53.3159 230.425 52.8626 229.455 52.8626H228.404V54.6093H229.59C230.263 54.6093 230.614 54.3426 230.614 53.7426ZM228.404 50.1559V51.8093H229.482C230.317 51.8093 230.479 51.4093 230.479 51.0226C230.479 50.4226 230.115 50.1559 229.455 50.1559H228.404Z" fill="#0073B7"/>
<path d="M238.352 49.609V51.609H239.592C241.397 51.609 242.138 52.369 242.138 53.7157C242.138 54.9157 241.343 55.7424 239.767 55.7424H237.625C237.207 55.7424 236.897 55.4357 236.897 55.0757V49.609C236.897 49.249 237.207 48.9424 237.625 48.9424C238.029 48.9424 238.352 49.249 238.352 49.609ZM239.592 52.809H238.352V54.5424H239.74C240.36 54.5424 240.697 54.2624 240.697 53.6757C240.697 53.249 240.521 52.809 239.592 52.809Z" fill="#0073B7"/>
<path d="M251.154 55.8493C250.737 55.8493 250.427 55.5426 250.427 55.1693V53.1426H249.551L247.88 55.5293C247.719 55.7426 247.53 55.8493 247.288 55.8493C246.883 55.8493 246.6 55.6226 246.587 55.2626C246.587 55.1426 246.627 54.9693 246.695 54.8626L248.029 52.9959C247.045 52.7159 246.641 52.0493 246.641 51.0493C246.641 49.8359 247.449 49.0093 249.08 49.0093H251.154C251.559 49.0093 251.882 49.3293 251.882 49.6893V55.1693C251.882 55.5426 251.559 55.8493 251.154 55.8493ZM248.083 51.0893C248.083 51.5026 248.258 51.9559 249.255 51.9559H250.427V50.2226H249.106C248.433 50.2226 248.083 50.4893 248.083 51.0893Z" fill="#0073B7"/>
</g>
</g>
<defs>
<linearGradient id="paint0_linear_72_486" x1="0.552278" y1="31.3323" x2="63.1639" y2="32.4367" gradientUnits="userSpaceOnUse">
<stop stop-color="#97C21A"/>
<stop offset="0.07" stop-color="#F3F6EA"/>
<stop offset="0.15" stop-color="#97C21A"/>
<stop offset="0.29" stop-color="#FFFEFA"/>
<stop offset="0.39" stop-color="#97C21A"/>
<stop offset="0.5" stop-color="#F9FBF2"/>
<stop offset="0.59" stop-color="#97C21A"/>
<stop offset="0.66" stop-color="#F8FAEF"/>
<stop offset="0.77" stop-color="#97C21A"/>
<stop offset="0.85" stop-color="#97C21A"/>
<stop offset="0.91" stop-color="#F1F4EC"/>
<stop offset="1" stop-color="#97C21A"/>
</linearGradient>
<clipPath id="clip0_72_486">
<rect width="256" height="64" fill="white"/>
</clipPath>
</defs>
</svg>
