<svg xmlns="http://www.w3.org/2000/svg" width="204" height="40" viewBox="0 0 204 40" fill="none">
    <path d="M0 14C0 6.26801 6.26801 0 14 0H204V26C204 33.732 197.732 40 190 40H0V14Z"
        fill="#FFDF43" />
    <path
        d="M174.298 25.8735V22.0561H193.17V17.9367H174.298V14.1194H193.362V10H176.847C173.165 10 170.176 12.9866 170.176 16.6666V23.3263C170.176 27.0063 173.165 29.9929 176.847 29.9929H193.561V25.8735H174.298Z"
        fill="#676C75" />
    <path
        d="M145.012 16.7215V29.9929H149.134V22.0561H166.639V17.9367H149.134V14.1194H166.838V10H151.738C148.028 10 145.012 13.0072 145.012 16.7215Z"
        fill="#676C75" />
    <path
        d="M116.09 10.0069H111.969V23.9374C111.969 27.2809 114.682 29.9998 118.035 29.9998H133.382V25.8803H116.097V10.0137L116.09 10.0069Z"
        fill="#676C75" />
    <path d="M141.261 10.0069H137.14V29.9929H141.261V10.0069Z" fill="#676C75" />
    <path
        d="M16.0317 10.0071C12.6998 10.0071 10 12.7053 10 16.0352C10 19.365 12.6998 22.0633 16.0317 22.0633H29.84V25.8806H10.4878V30H27.9371C31.2689 30 33.9688 27.3018 33.9688 23.9719C33.9688 20.6421 31.2689 17.9439 27.9371 17.9439H14.1288V14.1265H42.9819V29.9931H47.1038V14.1265H57.3879V10.0071H16.0317Z"
        fill="#676C75" />
    <path
        d="M102.145 10.0069H85.0664V29.9929H89.1883V25.5165H102.145C105.58 25.5165 108.362 22.7359 108.362 19.303V16.2203C108.362 12.7875 105.58 10.0069 102.145 10.0069ZM104.24 21.397H89.1883V14.1263H104.24V21.397Z"
        fill="#676C75" />
    <path
        d="M80.9308 22.0561V17.9367H63.6944V14.1194H81.1231V10H66.2362C62.554 10 59.5657 12.9866 59.5657 16.6666V23.3263C59.5657 27.0063 62.554 29.9929 66.2362 29.9929H81.3155V25.8735H63.6875V22.0561H80.9308Z"
        fill="#676C75" />
</svg>