<svg width="30" height="30" viewBox="0 0 30 30" fill="none" xmlns="http://www.w3.org/2000/svg">
<path d="M11.3743 11.3109C11.3743 9.63281 10.2329 9.63281 10.2329 9.63281H5.54541V13.2305H9.94228C10.7017 13.2305 11.3743 12.9867 11.3743 11.3109ZM10.2329 15.7172H5.54541V20.025H10.022C10.6946 20.0063 11.9392 19.7906 11.9392 17.9297C11.9321 15.7031 10.2329 15.7172 10.2329 15.7172ZM22.2493 13.2305C19.7579 13.2305 19.411 15.7148 19.411 15.7148H24.7079C24.7079 15.7148 24.7407 13.2305 22.2493 13.2305Z" fill="black"/>
<path d="M26.0743 0.506226H3.92588C3.01896 0.506226 2.14919 0.866497 1.50791 1.50778C0.866619 2.14907 0.506348 3.01884 0.506348 3.92576V26.0718C0.506348 26.9788 0.866619 27.8485 1.50791 28.4898C2.14919 29.1311 3.01896 29.4914 3.92588 29.4914H26.072C26.9789 29.4914 27.8487 29.1311 28.4899 28.4898C29.1312 27.8485 29.4915 26.9788 29.4915 26.0718V3.92576C29.4915 3.01925 29.1316 2.14983 28.4908 1.50861C27.85 0.867392 26.9808 0.506847 26.0743 0.506226ZM18.7173 7.7156H25.3688V9.7031H18.7173V7.7156ZM15.354 18.1312C15.354 23.0531 10.2329 22.8914 10.2329 22.8914H1.84229V6.76638H10.2329C12.7829 6.76638 14.7962 8.17263 14.7962 11.0601C14.7962 13.9476 12.3353 14.1281 12.3353 14.1281C15.579 14.1281 15.354 18.1312 15.354 18.1312ZM27.797 17.8687H19.4532C19.4532 20.864 22.2915 20.6812 22.2915 20.6812C24.9704 20.6812 24.8696 18.9468 24.8696 18.9468H27.7032C27.7032 23.55 22.186 23.2336 22.186 23.2336C15.5649 23.2336 15.9915 17.0695 15.9915 17.0695C15.9915 17.0695 15.9915 10.875 22.186 10.875C28.7134 10.8703 27.7993 17.8687 27.7993 17.8687H27.797Z" fill="black"/>
</svg>
