<svg width="21" height="20" viewBox="0 0 21 20" fill="none" xmlns="http://www.w3.org/2000/svg">
<path fill-rule="evenodd" clip-rule="evenodd" d="M7.7224 1.04161C6.99989 1.04107 6.29596 1.27055 5.71257 1.69679C5.12919 2.12304 4.69663 2.72393 4.47756 3.41244C4.25849 4.10094 4.26427 4.8413 4.49407 5.5263C4.72387 6.2113 5.16576 6.80536 5.75574 7.22244C5.31154 7.53665 4.94928 7.95292 4.69942 8.43625C4.44956 8.91958 4.31941 9.45584 4.3199 9.99994C4.3199 11.1466 4.8874 12.1616 5.7574 12.7774C5.2808 13.1148 4.89904 13.5692 4.64885 14.0968C4.39867 14.6244 4.28848 15.2075 4.3289 15.7901C4.36931 16.3726 4.55896 16.9349 4.8796 17.4229C5.20024 17.9109 5.64108 18.3082 6.15971 18.5766C6.67833 18.8449 7.25729 18.9752 7.84087 18.955C8.42445 18.9349 8.99301 18.7648 9.49185 18.4613C9.9907 18.1578 10.403 17.731 10.6892 17.222C10.9753 16.713 11.1257 16.1389 11.1257 15.5549V12.6349C11.4797 12.9217 11.8877 13.1345 12.3254 13.2606C12.7632 13.3868 13.2218 13.4237 13.6741 13.3693C14.1264 13.3149 14.5632 13.1702 14.9585 12.9438C15.3539 12.7174 15.6997 12.4139 15.9755 12.0513C16.2514 11.6887 16.4516 11.2745 16.5643 10.8331C16.677 10.3917 16.6999 9.93212 16.6317 9.48169C16.5635 9.03125 16.4055 8.59911 16.1672 8.21088C15.9288 7.82265 15.6149 7.48624 15.2441 7.22161C15.834 6.80452 16.2759 6.21046 16.5057 5.52547C16.7355 4.84047 16.7413 4.10011 16.5223 3.4116C16.3032 2.7231 15.8706 2.12221 15.2872 1.69596C14.7038 1.26971 13.9999 1.04024 13.2774 1.04077L7.7224 1.04161ZM9.8749 12.1524H7.7224C7.43973 12.1524 7.15983 12.0968 6.89868 11.9886C6.63753 11.8804 6.40024 11.7219 6.20036 11.522C6.00048 11.3221 5.84193 11.0848 5.73375 10.8237C5.62558 10.5625 5.5699 10.2826 5.5699 9.99994C5.5699 9.71727 5.62558 9.43737 5.73375 9.17621C5.84193 8.91506 6.00048 8.67777 6.20036 8.47789C6.40024 8.27801 6.63753 8.11946 6.89868 8.01129C7.15983 7.90311 7.43973 7.84744 7.7224 7.84744H9.8749V9.99994V12.1524ZM7.7224 6.59744H9.8749V2.29161H7.7224C7.15142 2.29161 6.60381 2.51843 6.20006 2.92218C5.79631 3.32593 5.56949 3.87353 5.56949 4.44452C5.56949 5.01551 5.79631 5.56311 6.20006 5.96686C6.60381 6.37061 7.15142 6.59744 7.7224 6.59744ZM15.4307 4.44411C15.431 5.0147 15.2046 5.56203 14.8015 5.96581C14.3983 6.36959 13.8513 6.59678 13.2807 6.59744H11.1249V2.29161H13.2782C13.5609 2.29161 13.8408 2.34728 14.102 2.45546C14.3631 2.56363 14.6004 2.72218 14.8003 2.92206C15.0002 3.12194 15.1587 3.35923 15.2669 3.62038C15.3751 3.88153 15.4307 4.16144 15.4307 4.44411ZM11.1249 9.99744C11.1256 9.42743 11.3523 8.88095 11.7554 8.47789C12.1584 8.07483 12.7049 7.8481 13.2749 7.84744H13.2799C13.7054 7.84793 14.1212 7.97453 14.4748 8.21124C14.8284 8.44795 15.1039 8.78415 15.2665 9.17737C15.4291 9.57058 15.4716 10.0032 15.3884 10.4205C15.3053 10.8378 15.1003 11.2211 14.7994 11.522C14.4986 11.8229 14.1153 12.0278 13.6979 12.111C13.2806 12.1941 12.848 12.1517 12.4548 11.9891C12.0616 11.8265 11.7254 11.551 11.4887 11.1974C11.252 10.8438 11.1254 10.428 11.1249 10.0024V9.99744ZM7.7224 13.4024C7.29672 13.4024 6.88059 13.5287 6.52663 13.7651C6.17267 14.0016 5.89678 14.3378 5.73383 14.731C5.57089 15.1243 5.52822 15.557 5.6112 15.9746C5.69419 16.3921 5.89911 16.7756 6.20006 17.0767C6.50101 17.3778 6.88447 17.5828 7.30196 17.666C7.71945 17.7491 8.15222 17.7066 8.54555 17.5438C8.93889 17.381 9.27512 17.1053 9.51174 16.7514C9.74836 16.3975 9.87474 15.9815 9.8749 15.5558V13.4024H7.7224Z" fill="black"/>
</svg>
