<svg width="13" height="13" viewBox="0 0 13 13" fill="none" xmlns="http://www.w3.org/2000/svg">
    <rect width="13" height="13" fill="white" />
    <path
        d="M8.86164 7.91824H8.36478L8.18868 7.74843C8.80503 7.03145 9.1761 6.10063 9.1761 5.08805C9.1761 2.83019 7.34591 1 5.08805 1C2.83019 1 1 2.83019 1 5.08805C1 7.34591 2.83019 9.1761 5.08805 9.1761C6.10063 9.1761 7.03145 8.80503 7.74843 8.18868L7.91824 8.36478V8.86164L11.0629 12L12 11.0629L8.86164 7.91824ZM5.08805 7.91824C3.52201 7.91824 2.25786 6.65409 2.25786 5.08805C2.25786 3.52201 3.52201 2.25786 5.08805 2.25786C6.65409 2.25786 7.91824 3.52201 7.91824 5.08805C7.91824 6.65409 6.65409 7.91824 5.08805 7.91824Z"
        fill="#49545c" />
</svg>  