<svg width="13" height="13" viewBox="0 0 13 13" fill="none" xmlns="http://www.w3.org/2000/svg">
    <rect width="13" height="13" fill="white" />
    <path
        d="M6.4945 1C3.4585 1 1 3.464 1 6.5C1 9.536 3.4585 12 6.4945 12C9.536 12 12 9.536 12 6.5C12 3.464 9.536 1 6.4945 1ZM6.5 10.9C4.069 10.9 2.1 8.931 2.1 6.5C2.1 4.069 4.069 2.1 6.5 2.1C8.931 2.1 10.9 4.069 10.9 6.5C10.9 8.931 8.931 10.9 6.5 10.9ZM6.775 3.75H5.95V7.05L8.8375 8.7825L9.25 8.106L6.775 6.6375V3.75Z"
        fill="#49545c" />
</svg>