<svg width="30" height="30" viewBox="0 0 30 30" fill="none" xmlns="http://www.w3.org/2000/svg">
<path d="M15 2.8125C8.28 2.8125 2.8125 8.28 2.8125 15C2.8125 21.72 8.28 27.1875 15 27.1875C21.72 27.1875 27.1875 21.72 27.1875 15C27.1875 8.28 21.72 2.8125 15 2.8125ZM15 4.6875C20.6859 4.6875 25.3125 9.31406 25.3125 15C25.3125 18.195 23.85 21.0534 21.5625 22.9472V15C21.5625 14.7514 21.4637 14.5129 21.2879 14.3371C21.1121 14.1613 20.8736 14.0625 20.625 14.0625C20.3764 14.0625 20.1379 14.1613 19.9621 14.3371C19.7863 14.5129 19.6875 14.7514 19.6875 15V24.1734C18.2381 24.9212 16.6309 25.3117 15 25.3125C13.3116 25.3125 11.7206 24.8962 10.3125 24.1734V15C10.3125 14.7514 10.2137 14.5129 10.0379 14.3371C9.8621 14.1613 9.62364 14.0625 9.375 14.0625C9.12636 14.0625 8.8879 14.1613 8.71209 14.3371C8.53627 14.5129 8.4375 14.7514 8.4375 15V22.9472C6.15 21.0534 4.6875 18.1941 4.6875 15C4.6875 9.31406 9.31406 4.6875 15 4.6875ZM11.25 9.375C10.0875 9.375 9.20625 10.0219 8.61562 10.575C8.01562 11.1281 7.65 11.6625 7.65 11.6625L9.225 12.7125C9.225 12.7125 9.45937 12.3094 9.87187 11.925C10.2844 11.5406 10.8281 11.25 11.25 11.25H14.0625V9.375H11.25ZM15.9375 9.375V11.25H18.75C19.1719 11.25 19.7156 11.5406 20.1281 11.925C20.5406 12.3094 20.775 12.7125 20.775 12.7125L22.35 11.6625C22.35 11.6625 21.9844 11.1281 21.3844 10.575C20.7937 10.0219 19.9125 9.375 18.75 9.375H15.9375ZM15 15C13.4494 15 12.1875 16.4719 12.1875 18.2812C12.1875 20.0906 13.4494 21.5625 15 21.5625C16.5506 21.5625 17.8125 20.0906 17.8125 18.2812C17.8125 16.4719 16.5506 15 15 15ZM15 16.875C15.4987 16.875 15.9375 17.5322 15.9375 18.2812C15.9375 19.0303 15.4987 19.6875 15 19.6875C14.5013 19.6875 14.0625 19.0303 14.0625 18.2812C14.0625 17.5322 14.5013 16.875 15 16.875Z" fill="white"/>
</svg>
