<svg width="25" height="26" viewBox="0 0 25 26" fill="none" xmlns="http://www.w3.org/2000/svg">
<g clip-path="url(#clip0_47_86)">
<path d="M20.9615 9.77096C20.9615 12.3383 19.6308 14.6204 17.5708 16.051L18.4938 17.192C19.7384 16.3293 20.7485 15.2092 21.444 13.9209C22.1395 12.6326 22.5011 11.2116 22.5 9.77096H20.9615ZM12.5 1.9263C14.7441 1.9263 16.8964 2.75279 18.4832 4.22395C20.0701 5.69511 20.9615 7.69043 20.9615 9.77096H22.5C22.5 7.31215 21.4464 4.95404 19.5711 3.2154C17.6957 1.47676 15.1522 0.5 12.5 0.5V1.9263ZM4.03846 9.77096C4.03846 7.69043 4.92994 5.69511 6.51679 4.22395C8.10364 2.75279 10.2559 1.9263 12.5 1.9263V0.5C9.84784 0.5 7.3043 1.47676 5.42893 3.2154C3.55357 4.95404 2.5 7.31215 2.5 9.77096H4.03846ZM7.42923 16.051C6.3757 15.3212 5.52054 14.3734 4.93186 13.2831C4.34319 12.1929 4.03726 10.9902 4.03846 9.77096H2.5C2.49892 11.2116 2.86051 12.6326 3.55598 13.9209C4.25146 15.2092 5.26164 16.3293 6.50616 17.192L7.42923 16.051ZM10.1877 23.6817C10.1408 21.596 9.67598 19.5366 8.81692 17.6085L7.39539 18.1519C8.18 19.912 8.60769 21.799 8.65077 23.7116L10.1877 23.6817ZM14.9077 23.5462C14.1601 23.8927 13.3358 24.073 12.5 24.073C11.6642 24.073 10.8399 23.8927 10.0923 23.5462L9.40462 24.8227C10.3657 25.2681 11.4255 25.5 12.5 25.5C13.5745 25.5 14.6343 25.2681 15.5954 24.8227L14.9077 23.5462ZM16.1846 17.6085C15.3248 19.537 14.8595 21.5969 14.8123 23.6831L16.3508 23.7116C16.3923 21.799 16.82 19.9134 17.6046 18.1533L16.1846 17.6085ZM15.5954 24.8227C15.8183 24.7188 16.0064 24.5603 16.1392 24.3645C16.2721 24.1687 16.3447 23.9429 16.3492 23.7116L14.8108 23.6831C14.8118 23.6542 14.8213 23.6262 14.8384 23.602C14.8555 23.5778 14.8795 23.5585 14.9077 23.5462L15.5954 24.8227ZM8.65077 23.7116C8.65529 23.9429 8.7279 24.1687 8.86076 24.3645C8.99363 24.5603 9.18168 24.7188 9.40462 24.8227L10.0923 23.5462C10.12 23.5586 10.1435 23.5778 10.1603 23.6017C10.1771 23.6255 10.1866 23.6532 10.1877 23.6817L8.65077 23.7116ZM6.50616 17.1934C6.99539 17.5329 7.10616 17.617 7.15231 17.6727L8.36769 16.7984C8.16 16.5502 7.82462 16.3277 7.42923 16.051L6.50616 17.1934ZM8.81692 17.6085C8.68308 17.309 8.57077 17.0422 8.36769 16.7984L7.15231 17.6727C7.20154 17.7326 7.23539 17.7939 7.39539 18.1519L8.81692 17.6085ZM17.5708 16.0524C17.1754 16.3262 16.84 16.5516 16.6323 16.7984L17.8477 17.6727C17.8938 17.617 18.0031 17.5329 18.4938 17.192L17.5708 16.0524ZM17.6046 18.1533C17.7646 17.7953 17.7985 17.7326 17.8492 17.6727L16.6338 16.7984C16.4292 17.0422 16.3169 17.309 16.1831 17.6085L17.6046 18.1533Z" fill="#E5E5E5"/>
<path d="M16.3461 19.0419C13.8771 19.9574 11.1228 19.9574 8.65381 19.0419H16.3461Z" fill="#E5E5E5"/>
<path d="M16.3461 19.0419C13.8771 19.9574 11.1228 19.9574 8.65381 19.0419" stroke="#25274D" stroke-width="1.25"/>
</g>
<defs>
<clipPath id="clip0_47_86">
<rect width="25" height="25" fill="white" transform="translate(0 0.5)"/>
</clipPath>
</defs>
</svg>
