<svg width="26" height="20" viewBox="0 0 26 20" fill="none" xmlns="http://www.w3.org/2000/svg">
<path fill-rule="evenodd" clip-rule="evenodd" d="M1.965 1.465C0.5 2.92875 0.5 5.28625 0.5 10C0.5 14.7137 0.5 17.0712 1.965 18.535C3.42875 20 5.78625 20 10.5 20H15.5C20.2137 20 22.5712 20 24.035 18.535C25.5 17.0712 25.5 14.7137 25.5 10C25.5 5.28625 25.5 2.92875 24.035 1.465C22.5712 -1.49012e-07 20.2137 0 15.5 0H10.5C5.78625 0 3.42875 -1.49012e-07 1.965 1.465ZM21.22 4.4C21.3791 4.59098 21.4558 4.83732 21.4333 5.08484C21.4108 5.33237 21.2909 5.56083 21.1 5.72L18.355 8.0075C17.2463 8.9325 16.3487 9.68 15.555 10.19C14.73 10.7213 13.9263 11.0563 13 11.0563C12.0737 11.0563 11.27 10.72 10.4438 10.19C9.65125 9.68 8.75375 8.93125 7.645 8.00875L4.9 5.72125C4.70888 5.56212 4.5888 5.33359 4.56618 5.08592C4.54356 4.83825 4.62024 4.59175 4.77938 4.40063C4.93851 4.2095 5.16704 4.08942 5.41471 4.0668C5.66237 4.04418 5.90888 4.12087 6.1 4.28L8.8 6.52875C9.96625 7.5 10.775 8.1725 11.46 8.6125C12.1212 9.0375 12.57 9.18125 13.0013 9.18125C13.4325 9.18125 13.8813 9.03875 14.5425 8.6125C15.2263 8.1725 16.0363 7.5 17.2025 6.52875L19.9012 4.27875C20.0924 4.11983 20.3388 4.04333 20.5864 4.06607C20.8339 4.08881 21.061 4.20892 21.22 4.4Z" fill="black"/>
</svg>
