<svg width="54" height="54" viewBox="0 0 54 54" fill="none" xmlns="http://www.w3.org/2000/svg">
<path fill-rule="evenodd" clip-rule="evenodd" d="M11.8515 4.49413C16.2368 1.56396 21.3927 0 26.6667 0C33.739 0 40.522 2.8095 45.523 7.8105C50.5237 12.8115 53.3333 19.5942 53.3333 26.6667C53.3333 31.941 51.7693 37.0967 48.8393 41.482C45.909 45.8673 41.7443 49.285 36.8717 51.3033C31.999 53.3217 26.637 53.85 21.4643 52.821C16.2914 51.792 11.5399 49.2523 7.8105 45.523C4.08109 41.7933 1.54133 37.042 0.5124 31.869C-0.516536 26.6963 0.0115628 21.3343 2.0299 16.4618C4.04824 11.5891 7.46616 7.4243 11.8515 4.49413ZM39.1167 15.7483L34.7501 36.3817C34.4167 37.8483 33.5501 38.1817 32.3167 37.515L25.6501 32.5817L22.3167 35.6817C22.1597 35.8867 21.9581 36.0533 21.7271 36.169C21.4961 36.2843 21.2417 36.3457 20.9834 36.3483L21.4501 29.6817L33.7834 18.515C34.3501 18.0483 33.7834 17.7817 32.9834 18.2483L17.8501 27.7483L11.1834 25.6817C9.75006 25.2483 9.71672 24.2483 11.4834 23.5817L37.1834 13.5817C38.4501 13.215 39.5167 13.9483 39.1167 15.7483Z" fill="black"/>
</svg>
