<svg width="55" height="54" viewBox="0 0 55 54" fill="none" xmlns="http://www.w3.org/2000/svg">
<path d="M15.0704 36.8581L22.9505 16.8816C23.2607 16.0952 23.7991 15.4214 24.4876 14.9432L33.0042 9.07786C34.3538 8.13335 36.8144 8.05879 38.3399 9.43309C40.0109 10.842 40.4357 13.509 39.2627 15.273L35.7041 21.2991C35.3928 21.8579 35.3407 22.4508 35.512 22.9956C35.6989 23.501 36.0974 23.9308 36.6283 24.1403L44.7093 27.328C46.2626 27.9407 47.3514 29.0973 47.7036 30.5086C48.0319 31.865 47.6266 33.2957 46.5844 34.4978L35.9383 47.3165C34.367 49.5142 30.9293 50.453 28.2946 49.4136L20.6265 46.3888C19.3092 45.8692 17.6393 44.6879 17.1274 43.5089L15.3785 40.5696C14.7021 39.4621 14.5895 38.0771 15.0704 36.8581Z" fill="#FFE457"/>
<path d="M18.2106 10.5771L16.1855 9.77827C13.1379 8.57609 11.4338 9.26718 10.2859 12.1771L2.48339 31.957C1.3355 34.8669 2.10884 36.5353 5.15643 37.7374L7.1816 38.5363C10.2292 39.7385 11.9333 39.0474 13.0811 36.1374L20.8837 16.3576C22.0316 13.4477 21.2582 11.7793 18.2106 10.5771Z" fill="#FFE457"/>
</svg>
