<svg width="52" height="62" viewBox="0 0 52 62" fill="none" xmlns="http://www.w3.org/2000/svg">
<path d="M26.6797 58.097C31.1717 56.3912 33.4329 51.361 31.727 46.869L28.6367 38.7313L20.499 41.8217C16.007 43.5276 13.7458 48.5577 15.4517 53.0497C17.1576 57.5417 22.1877 59.8029 26.6797 58.097Z" fill="#0ACF83"/>
<path d="M9.27102 36.7745C7.56514 32.2825 9.82634 27.2523 14.3183 25.5464L22.456 22.4561L28.6367 38.7314L20.4991 41.8218C16.0071 43.5276 10.9769 41.2664 9.27102 36.7745Z" fill="#A259FF"/>
<path d="M3.09036 20.499C1.38448 16.007 3.64568 10.9768 8.13767 9.27097L16.2753 6.18061L22.4561 22.456L14.3184 25.5463C9.82639 27.2522 4.79624 24.991 3.09036 20.499Z" fill="#F24E1E"/>
<path d="M16.2754 6.1806L24.4131 3.09025C28.9051 1.38437 33.9352 3.64556 35.6411 8.13756C37.347 12.6296 35.0858 17.6597 30.5938 19.3656L22.4561 22.456L16.2754 6.1806Z" fill="#FF7262"/>
<path d="M41.8218 24.4128C43.5276 28.9048 41.2664 33.935 36.7744 35.6409C32.2824 37.3467 27.2523 35.0855 25.5464 30.5935C23.8405 26.1015 26.1017 21.0714 30.5937 19.3655C35.0857 17.6596 40.1159 19.9208 41.8218 24.4128Z" fill="#1ABCFE"/>
</svg>
