<svg width="42" height="30" viewBox="0 0 42 30" fill="none" xmlns="http://www.w3.org/2000/svg">
<circle cx="20.3016" cy="15.5141" r="13.4066" fill="white"/>
<path d="M40.2326 5.28658C39.9989 4.41943 39.5421 3.62861 38.9078 2.99284C38.2735 2.35707 37.4837 1.89852 36.6171 1.66283C33.4037 0.780492 20.5482 0.766129 20.5482 0.766129C20.5482 0.766129 7.69482 0.751765 4.47941 1.59512C3.61333 1.84165 2.82517 2.30669 2.1906 2.94558C1.55602 3.58447 1.09633 4.37576 0.855667 5.24349C0.00821118 8.45684 3.0064e-06 15.1216 3.0064e-06 15.1216C3.0064e-06 15.1216 -0.00820476 21.8191 0.833095 24.9997C1.30504 26.7582 2.69011 28.1474 4.45069 28.6214C7.69687 29.5037 20.5175 29.5181 20.5175 29.5181C20.5175 29.5181 33.3729 29.5324 36.5863 28.6911C37.4532 28.4559 38.2437 27.9984 38.8797 27.3639C39.5156 26.7294 39.9748 25.9399 40.2121 25.0735C41.0616 21.8622 41.0677 15.1996 41.0677 15.1996C41.0677 15.1996 41.1088 8.49993 40.2326 5.28658ZM16.4361 21.2959L16.4464 8.98419L27.1309 15.1503L16.4361 21.2959Z" fill="#f00"/>
</svg>
