<svg width="127" height="64" viewBox="0 0 127 64" fill="none" xmlns="http://www.w3.org/2000/svg">
    <path d="M120.298 48.3576C119.861 51.7226 116.673 54.776 113.236 55.0875L20.7356 63.5C17.2981 63.8116 13.8606 61.319 12.9856 58.0163L0.173116 6.54451C-0.639384 3.24184 1.48562 0.5 4.92312 0.5H120.548C123.986 0.5 126.423 3.30415 125.986 6.66914L120.298 48.3576Z" fill="#F5A408"/>
    <path d="M19.1729 13.96H27.8604L34.9229 25.4258L41.9854 13.96H50.6729V43.4971H42.4854V26.5475L34.9229 38.138H34.7354L27.2354 26.6721V43.4971H19.1729V13.96Z" fill="white"/>
    <path d="M55.0479 13.96H78.8604V20.9392H63.1104V25.4258H77.3604V31.9065H63.1104V36.5801H79.0479V43.4971H55.0479V13.96Z" fill="white"/>
    <path d="M91.3603 21.1261H82.4854V13.96H108.485V21.1261H99.6103V43.4971H91.4229V21.1261H91.3603Z" fill="white"/>
</svg>
