<svg width="20" height="22" viewBox="0 0 20 22" fill="none" xmlns="http://www.w3.org/2000/svg">
    <path
        d="M8.46899 8.91785C5.4778 8.91785 3.05301 11.3427 3.05298 14.3339C3.05298 17.3251 5.47778 19.7499 8.46899 19.7499C11.4602 19.7498 13.885 17.3251 13.885 14.3339C13.885 11.3427 11.4602 8.91788 8.46899 8.91785Z"
        stroke="#A7E7FE" stroke-width="2.5" />
    <path
        d="M2.13376 7.96812C1.64561 8.45628 0.854152 8.45628 0.365996 7.96812C-0.122159 7.47997 -0.122159 6.68851 0.365996 6.20035L1.24988 7.08424L2.13376 7.96812ZM16.6912 17.9701L17.8156 18.5163L16.6912 17.9701ZM1.24988 7.08424L0.365996 6.20035C1.32496 5.24139 3.63225 3.34042 8.21311 3.63559L8.13274 4.883L8.05236 6.13041C4.37224 5.89329 2.73048 7.3714 2.13376 7.96812L1.24988 7.08424ZM15.4729 20.4778L14.3485 19.9316L15.5669 17.4238L16.6912 17.9701L17.8156 18.5163L16.5972 21.0241L15.4729 20.4778ZM16.6912 17.9701L15.5669 17.4238C16.1799 16.1621 15.1338 14.7279 13.7451 14.9263L13.5683 13.6889L13.3915 12.4514C16.7638 11.9697 19.3042 15.4523 17.8156 18.5163L16.6912 17.9701ZM8.13274 4.883L8.21311 3.63559C9.99964 3.7507 11.2783 4.86351 11.8495 6.27468C12.4093 7.65772 12.3046 9.33653 11.4391 10.7481L10.3735 10.0947L9.30785 9.44134C9.76018 8.70361 9.79314 7.85761 9.53209 7.21265C9.28242 6.59581 8.78178 6.17741 8.05236 6.13041L8.13274 4.883Z"
        fill="#A7E7FE" />
    <path
        d="M14.1401 1.25C13.3036 1.25 12.6255 1.92812 12.6255 2.76465C12.6255 3.60121 13.3036 4.2793 14.1401 4.2793C14.9767 4.27925 15.6548 3.60118 15.6548 2.76465C15.6547 1.92815 14.9766 1.25004 14.1401 1.25Z"
        stroke="#A7E7FE" stroke-width="2.5" />
</svg>