<svg width="91" height="94" viewBox="0 0 91 94" fill="none" xmlns="http://www.w3.org/2000/svg">
    <path
        d="M37.113 35C25.0736 35 15.3132 44.7604 15.3132 56.7998C15.3135 68.839 25.0738 78.5986 37.113 78.5986C49.1521 78.5984 58.9116 68.8388 58.9119 56.7998C58.9119 44.7605 49.1522 35.0003 37.113 35Z"
        stroke="#DBF8BF" stroke-width="10" />
    <path
        d="M3.92481 31C11.6162 21.255 23.5336 15 36.9119 15C44.7692 15 52.1226 17.1576 58.4119 20.9127L47.4119 38.5"
        stroke="#DBF8BF" stroke-width="10" />
    <path d="M63.4119 89.5862C69.7388 84.4347 74.5368 77.4775 77.0204 69.5L58.4119 63"
        stroke="#DBF8BF" stroke-width="10" />
    <path
        d="M79.0265 5C75.6495 5.00017 72.9122 7.73816 72.9122 11.1152C72.9124 14.4922 75.6496 17.2293 79.0265 17.2295C82.4036 17.2295 85.1416 14.4923 85.1417 11.1152C85.1417 7.73805 82.4037 5 79.0265 5Z"
        stroke="#DBF8BF" stroke-width="10" />
</svg>