<svg width="457" height="134" viewBox="0 0 457 134" fill="none" xmlns="http://www.w3.org/2000/svg">
    <path
        d="M457 109V25C457 11.1929 445.807 0 432 0H102.411C94.0368 0 86.219 4.19254 81.5859 11.168L25.7925 95.168C14.7556 111.785 26.6693 134 46.6174 134H432C445.807 134 457 122.807 457 109Z"
        fill="#49AED3" />
    <path
        d="M128.564 88V40.81L131.45 43.696H111.17V33.4H158.516V43.696H138.236L141.044 40.81V88H128.564ZM191.506 88.936C187.294 88.936 183.368 88.26 179.728 86.908C176.14 85.504 173.02 83.528 170.368 80.98C167.716 78.432 165.636 75.442 164.128 72.01C162.672 68.578 161.944 64.808 161.944 60.7C161.944 56.592 162.672 52.822 164.128 49.39C165.636 45.958 167.716 42.968 170.368 40.42C173.072 37.872 176.218 35.922 179.806 34.57C183.394 33.166 187.32 32.464 191.584 32.464C196.316 32.464 200.58 33.296 204.376 34.96C208.224 36.572 211.448 38.964 214.048 42.136L205.936 49.624C204.064 47.492 201.984 45.906 199.696 44.866C197.408 43.774 194.912 43.228 192.208 43.228C189.66 43.228 187.32 43.644 185.188 44.476C183.056 45.308 181.21 46.504 179.65 48.064C178.09 49.624 176.868 51.47 175.984 53.602C175.152 55.734 174.736 58.1 174.736 60.7C174.736 63.3 175.152 65.666 175.984 67.798C176.868 69.93 178.09 71.776 179.65 73.336C181.21 74.896 183.056 76.092 185.188 76.924C187.32 77.756 189.66 78.172 192.208 78.172C194.912 78.172 197.408 77.652 199.696 76.612C201.984 75.52 204.064 73.882 205.936 71.698L214.048 79.186C211.448 82.358 208.224 84.776 204.376 86.44C200.58 88.104 196.29 88.936 191.506 88.936ZM222.284 88V33.4H245.918C250.806 33.4 255.018 34.206 258.554 35.818C262.09 37.378 264.82 39.64 266.744 42.604C268.668 45.568 269.63 49.104 269.63 53.212C269.63 57.268 268.668 60.778 266.744 63.742C264.82 66.706 262.09 68.994 258.554 70.606C255.018 72.166 250.806 72.946 245.918 72.946H229.304L234.92 67.252V88H222.284ZM234.92 68.656L229.304 62.65H245.216C249.116 62.65 252.028 61.818 253.952 60.154C255.876 58.49 256.838 56.176 256.838 53.212C256.838 50.196 255.876 47.856 253.952 46.192C252.028 44.528 249.116 43.696 245.216 43.696H229.304L234.92 37.69V68.656Z"
        fill="white" />
    <path
        d="M54.688 110.192C53.824 110.192 53.0187 110.053 52.272 109.776C51.536 109.488 50.896 109.083 50.352 108.56C49.808 108.037 49.3813 107.424 49.072 106.72C48.7733 106.016 48.624 105.243 48.624 104.4C48.624 103.557 48.7733 102.784 49.072 102.08C49.3813 101.376 49.808 100.763 50.352 100.24C50.9067 99.7173 51.552 99.3173 52.288 99.04C53.024 98.752 53.8293 98.608 54.704 98.608C55.6747 98.608 56.5493 98.7787 57.328 99.12C58.1173 99.4507 58.7787 99.9413 59.312 100.592L57.648 102.128C57.264 101.691 56.8373 101.365 56.368 101.152C55.8987 100.928 55.3867 100.816 54.832 100.816C54.3093 100.816 53.8293 100.901 53.392 101.072C52.9547 101.243 52.576 101.488 52.256 101.808C51.936 102.128 51.6853 102.507 51.504 102.944C51.3333 103.381 51.248 103.867 51.248 104.4C51.248 104.933 51.3333 105.419 51.504 105.856C51.6853 106.293 51.936 106.672 52.256 106.992C52.576 107.312 52.9547 107.557 53.392 107.728C53.8293 107.899 54.3093 107.984 54.832 107.984C55.3867 107.984 55.8987 107.877 56.368 107.664C56.8373 107.44 57.264 107.104 57.648 106.656L59.312 108.192C58.7787 108.843 58.1173 109.339 57.328 109.68C56.5493 110.021 55.6693 110.192 54.688 110.192ZM62.415 110V102.864L62.975 103.44H59.503V101.392H67.807V103.44H64.335L64.895 102.864V110H62.415ZM74.2895 110V108.32L74.1295 107.952V104.944C74.1295 104.411 73.9642 103.995 73.6335 103.696C73.3135 103.397 72.8175 103.248 72.1455 103.248C71.6868 103.248 71.2335 103.323 70.7855 103.472C70.3482 103.611 69.9748 103.803 69.6655 104.048L68.7695 102.304C69.2388 101.973 69.8042 101.717 70.4655 101.536C71.1268 101.355 71.7988 101.264 72.4815 101.264C73.7935 101.264 74.8122 101.573 75.5375 102.192C76.2628 102.811 76.6255 103.776 76.6255 105.088V110H74.2895ZM71.6655 110.128C70.9935 110.128 70.4175 110.016 69.9375 109.792C69.4575 109.557 69.0895 109.243 68.8335 108.848C68.5775 108.453 68.4495 108.011 68.4495 107.52C68.4495 107.008 68.5722 106.56 68.8175 106.176C69.0735 105.792 69.4735 105.493 70.0175 105.28C70.5615 105.056 71.2708 104.944 72.1455 104.944H74.4335V106.4H72.4175C71.8308 106.4 71.4255 106.496 71.2015 106.688C70.9882 106.88 70.8815 107.12 70.8815 107.408C70.8815 107.728 71.0042 107.984 71.2495 108.176C71.5055 108.357 71.8522 108.448 72.2895 108.448C72.7055 108.448 73.0788 108.352 73.4095 108.16C73.7402 107.957 73.9802 107.664 74.1295 107.28L74.5135 108.432C74.3322 108.987 74.0015 109.408 73.5215 109.696C73.0415 109.984 72.4228 110.128 71.6655 110.128ZM83.8658 110.128C83.1404 110.128 82.5058 109.968 81.9618 109.648C81.4178 109.328 80.9911 108.843 80.6818 108.192C80.3831 107.531 80.2338 106.699 80.2338 105.696C80.2338 104.683 80.3778 103.851 80.6658 103.2C80.9538 102.549 81.3698 102.064 81.9138 101.744C82.4578 101.424 83.1084 101.264 83.8658 101.264C84.6764 101.264 85.4018 101.451 86.0417 101.824C86.6924 102.187 87.2044 102.699 87.5778 103.36C87.9618 104.021 88.1538 104.8 88.1538 105.696C88.1538 106.603 87.9618 107.387 87.5778 108.048C87.2044 108.709 86.6924 109.221 86.0417 109.584C85.4018 109.947 84.6764 110.128 83.8658 110.128ZM78.7778 113.104V101.392H81.1618V103.152L81.1138 105.712L81.2738 108.256V113.104H78.7778ZM83.4338 108.08C83.8498 108.08 84.2178 107.984 84.5378 107.792C84.8684 107.6 85.1298 107.328 85.3218 106.976C85.5244 106.613 85.6258 106.187 85.6258 105.696C85.6258 105.195 85.5244 104.768 85.3218 104.416C85.1298 104.064 84.8684 103.792 84.5378 103.6C84.2178 103.408 83.8498 103.312 83.4338 103.312C83.0178 103.312 82.6444 103.408 82.3138 103.6C81.9831 103.792 81.7218 104.064 81.5298 104.416C81.3378 104.768 81.2418 105.195 81.2418 105.696C81.2418 106.187 81.3378 106.613 81.5298 106.976C81.7218 107.328 81.9831 107.6 82.3138 107.792C82.6444 107.984 83.0178 108.08 83.4338 108.08ZM91.4306 110V102.864L91.9906 103.44H88.5186V101.392H96.8226V103.44H93.3506L93.9106 102.864V110H91.4306ZM108.604 108.88V103.44H105.788L105.74 104.544C105.719 105.003 105.692 105.44 105.66 105.856C105.628 106.272 105.564 106.651 105.468 106.992C105.383 107.323 105.255 107.605 105.084 107.84C104.914 108.064 104.684 108.219 104.396 108.304L101.932 107.952C102.242 107.952 102.492 107.861 102.684 107.68C102.876 107.488 103.026 107.227 103.132 106.896C103.239 106.555 103.319 106.171 103.372 105.744C103.426 105.307 103.463 104.848 103.484 104.368L103.596 101.392H111.1V108.88H108.604ZM101.644 111.856V107.952H112.332V111.856H110.012V110H103.964V111.856H101.644ZM112.815 109.984L112.943 107.936C113.007 107.947 113.071 107.957 113.135 107.968C113.199 107.968 113.258 107.968 113.311 107.968C113.61 107.968 113.844 107.883 114.015 107.712C114.186 107.541 114.314 107.312 114.399 107.024C114.484 106.725 114.543 106.389 114.575 106.016C114.618 105.643 114.65 105.253 114.671 104.848L114.799 101.392H122.159V110H119.663V102.832L120.223 103.44H116.447L116.975 102.8L116.863 104.96C116.831 105.728 116.767 106.432 116.671 107.072C116.586 107.712 116.442 108.267 116.239 108.736C116.036 109.195 115.764 109.552 115.423 109.808C115.082 110.053 114.644 110.176 114.111 110.176C113.919 110.176 113.716 110.16 113.503 110.128C113.29 110.096 113.06 110.048 112.815 109.984ZM129.983 110V107.136L130.335 107.536H127.951C126.714 107.536 125.743 107.28 125.039 106.768C124.335 106.256 123.983 105.52 123.983 104.56C123.983 103.536 124.351 102.752 125.087 102.208C125.834 101.664 126.837 101.392 128.095 101.392H132.207V110H129.983ZM123.855 110L126.143 106.72H128.687L126.511 110H123.855ZM129.983 106.368V102.784L130.335 103.424H128.143C127.631 103.424 127.231 103.52 126.943 103.712C126.666 103.904 126.527 104.213 126.527 104.64C126.527 105.461 127.055 105.872 128.111 105.872H130.335L129.983 106.368ZM139.138 110V101.392H143.538C144.615 101.392 145.458 101.589 146.066 101.984C146.674 102.368 146.977 102.912 146.977 103.616C146.977 104.32 146.69 104.875 146.114 105.28C145.548 105.675 144.796 105.872 143.858 105.872L144.114 105.296C145.159 105.296 145.938 105.488 146.45 105.872C146.972 106.256 147.234 106.816 147.234 107.552C147.234 108.309 146.946 108.907 146.37 109.344C145.794 109.781 144.914 110 143.73 110H139.138ZM141.426 108.304H143.522C143.98 108.304 144.322 108.229 144.546 108.08C144.78 107.92 144.898 107.68 144.898 107.36C144.898 107.029 144.791 106.789 144.578 106.64C144.364 106.48 144.028 106.4 143.57 106.4H141.426V108.304ZM141.426 104.928H143.314C143.751 104.928 144.076 104.848 144.29 104.688C144.514 104.528 144.626 104.299 144.626 104C144.626 103.691 144.514 103.461 144.29 103.312C144.076 103.163 143.751 103.088 143.314 103.088H141.426V104.928ZM154.243 110V108.32L154.083 107.952V104.944C154.083 104.411 153.917 103.995 153.587 103.696C153.267 103.397 152.771 103.248 152.099 103.248C151.64 103.248 151.187 103.323 150.739 103.472C150.301 103.611 149.928 103.803 149.619 104.048L148.723 102.304C149.192 101.973 149.757 101.717 150.419 101.536C151.08 101.355 151.752 101.264 152.435 101.264C153.747 101.264 154.765 101.573 155.491 102.192C156.216 102.811 156.579 103.776 156.579 105.088V110H154.243ZM151.619 110.128C150.947 110.128 150.371 110.016 149.891 109.792C149.411 109.557 149.043 109.243 148.787 108.848C148.531 108.453 148.403 108.011 148.403 107.52C148.403 107.008 148.525 106.56 148.771 106.176C149.027 105.792 149.427 105.493 149.971 105.28C150.515 105.056 151.224 104.944 152.099 104.944H154.387V106.4H152.371C151.784 106.4 151.379 106.496 151.155 106.688C150.941 106.88 150.835 107.12 150.835 107.408C150.835 107.728 150.957 107.984 151.203 108.176C151.459 108.357 151.805 108.448 152.243 108.448C152.659 108.448 153.032 108.352 153.363 108.16C153.693 107.957 153.933 107.664 154.083 107.28L154.467 108.432C154.285 108.987 153.955 109.408 153.475 109.696C152.995 109.984 152.376 110.128 151.619 110.128ZM164.619 107.952L164.075 108.528V101.392H166.571V108.528L165.995 107.952H169.963L169.403 108.528V101.392H171.883V110H158.747V101.392H161.227V108.528L160.667 107.952H164.619ZM178.486 110.128C177.505 110.128 176.641 109.936 175.894 109.552C175.158 109.168 174.587 108.645 174.182 107.984C173.777 107.312 173.574 106.549 173.574 105.696C173.574 104.832 173.771 104.069 174.166 103.408C174.571 102.736 175.121 102.213 175.814 101.84C176.507 101.456 177.291 101.264 178.166 101.264C179.009 101.264 179.766 101.445 180.438 101.808C181.121 102.16 181.659 102.672 182.054 103.344C182.449 104.005 182.646 104.8 182.646 105.728C182.646 105.824 182.641 105.936 182.63 106.064C182.619 106.181 182.609 106.293 182.598 106.4H175.606V104.944H181.286L180.326 105.376C180.326 104.928 180.235 104.539 180.054 104.208C179.873 103.877 179.622 103.621 179.302 103.44C178.982 103.248 178.609 103.152 178.182 103.152C177.755 103.152 177.377 103.248 177.046 103.44C176.726 103.621 176.475 103.883 176.294 104.224C176.113 104.555 176.022 104.949 176.022 105.408V105.792C176.022 106.261 176.123 106.677 176.326 107.04C176.539 107.392 176.833 107.664 177.206 107.856C177.59 108.037 178.038 108.128 178.55 108.128C179.009 108.128 179.409 108.059 179.75 107.92C180.102 107.781 180.422 107.573 180.71 107.296L182.038 108.736C181.643 109.184 181.147 109.531 180.55 109.776C179.953 110.011 179.265 110.128 178.486 110.128ZM184.559 110V101.392H187.039V106.512L191.231 101.392H193.519V110H191.039V104.88L186.863 110H184.559ZM188.879 100.464C187.941 100.464 187.237 100.261 186.767 99.856C186.298 99.44 186.058 98.816 186.047 97.984H187.679C187.69 98.3467 187.791 98.6347 187.983 98.848C188.175 99.0613 188.469 99.168 188.863 99.168C189.247 99.168 189.541 99.0613 189.743 98.848C189.957 98.6347 190.063 98.3467 190.063 97.984H191.727C191.727 98.816 191.487 99.44 191.007 99.856C190.527 100.261 189.818 100.464 188.879 100.464ZM205.522 110.128C204.797 110.128 204.162 109.968 203.618 109.648C203.074 109.328 202.647 108.843 202.338 108.192C202.039 107.531 201.89 106.699 201.89 105.696C201.89 104.683 202.034 103.851 202.322 103.2C202.61 102.549 203.026 102.064 203.57 101.744C204.114 101.424 204.765 101.264 205.522 101.264C206.333 101.264 207.058 101.451 207.698 101.824C208.349 102.187 208.861 102.699 209.234 103.36C209.618 104.021 209.81 104.8 209.81 105.696C209.81 106.603 209.618 107.387 209.234 108.048C208.861 108.709 208.349 109.221 207.698 109.584C207.058 109.947 206.333 110.128 205.522 110.128ZM200.434 113.104V101.392H202.818V103.152L202.77 105.712L202.93 108.256V113.104H200.434ZM205.09 108.08C205.506 108.08 205.874 107.984 206.194 107.792C206.525 107.6 206.786 107.328 206.978 106.976C207.181 106.613 207.282 106.187 207.282 105.696C207.282 105.195 207.181 104.768 206.978 104.416C206.786 104.064 206.525 103.792 206.194 103.6C205.874 103.408 205.506 103.312 205.09 103.312C204.674 103.312 204.301 103.408 203.97 103.6C203.639 103.792 203.378 104.064 203.186 104.416C202.994 104.768 202.898 105.195 202.898 105.696C202.898 106.187 202.994 106.613 203.186 106.976C203.378 107.328 203.639 107.6 203.97 107.792C204.301 107.984 204.674 108.08 205.09 108.08ZM215.767 110.128C214.786 110.128 213.922 109.936 213.175 109.552C212.439 109.168 211.869 108.645 211.463 107.984C211.058 107.312 210.855 106.549 210.855 105.696C210.855 104.832 211.053 104.069 211.447 103.408C211.853 102.736 212.402 102.213 213.095 101.84C213.789 101.456 214.573 101.264 215.447 101.264C216.29 101.264 217.047 101.445 217.719 101.808C218.402 102.16 218.941 102.672 219.335 103.344C219.73 104.005 219.927 104.8 219.927 105.728C219.927 105.824 219.922 105.936 219.911 106.064C219.901 106.181 219.89 106.293 219.879 106.4H212.887V104.944H218.567L217.607 105.376C217.607 104.928 217.517 104.539 217.335 104.208C217.154 103.877 216.903 103.621 216.583 103.44C216.263 103.248 215.89 103.152 215.463 103.152C215.037 103.152 214.658 103.248 214.327 103.44C214.007 103.621 213.757 103.883 213.575 104.224C213.394 104.555 213.303 104.949 213.303 105.408V105.792C213.303 106.261 213.405 106.677 213.607 107.04C213.821 107.392 214.114 107.664 214.487 107.856C214.871 108.037 215.319 108.128 215.831 108.128C216.29 108.128 216.69 108.059 217.031 107.92C217.383 107.781 217.703 107.573 217.991 107.296L219.319 108.736C218.925 109.184 218.429 109.531 217.831 109.776C217.234 110.011 216.546 110.128 215.767 110.128ZM226.758 110V108.32L226.598 107.952V104.944C226.598 104.411 226.433 103.995 226.102 103.696C225.782 103.397 225.286 103.248 224.614 103.248C224.156 103.248 223.702 103.323 223.254 103.472C222.817 103.611 222.444 103.803 222.134 104.048L221.238 102.304C221.708 101.973 222.273 101.717 222.934 101.536C223.596 101.355 224.268 101.264 224.95 101.264C226.262 101.264 227.281 101.573 228.006 102.192C228.732 102.811 229.094 103.776 229.094 105.088V110H226.758ZM224.134 110.128C223.462 110.128 222.886 110.016 222.406 109.792C221.926 109.557 221.558 109.243 221.302 108.848C221.046 108.453 220.918 108.011 220.918 107.52C220.918 107.008 221.041 106.56 221.286 106.176C221.542 105.792 221.942 105.493 222.486 105.28C223.03 105.056 223.74 104.944 224.614 104.944H226.902V106.4H224.886C224.3 106.4 223.894 106.496 223.67 106.688C223.457 106.88 223.35 107.12 223.35 107.408C223.35 107.728 223.473 107.984 223.718 108.176C223.974 108.357 224.321 108.448 224.758 108.448C225.174 108.448 225.548 108.352 225.878 108.16C226.209 107.957 226.449 107.664 226.598 107.28L226.982 108.432C226.801 108.987 226.47 109.408 225.99 109.696C225.51 109.984 224.892 110.128 224.134 110.128ZM235.535 110.192C234.831 110.192 234.191 110.091 233.615 109.888C233.039 109.675 232.537 109.349 232.111 108.912C231.695 108.464 231.369 107.893 231.135 107.2C230.911 106.507 230.799 105.68 230.799 104.72C230.799 104.037 230.857 103.413 230.975 102.848C231.092 102.283 231.268 101.771 231.503 101.312C231.737 100.843 232.036 100.432 232.399 100.08C232.772 99.7173 233.204 99.4187 233.695 99.184C234.196 98.9387 234.761 98.752 235.391 98.624L239.487 97.808L239.823 99.952L236.207 100.672C235.993 100.715 235.748 100.773 235.471 100.848C235.204 100.912 234.932 101.013 234.655 101.152C234.388 101.291 234.137 101.488 233.903 101.744C233.679 101.989 233.497 102.315 233.359 102.72C233.22 103.115 233.151 103.605 233.151 104.192C233.151 104.373 233.156 104.512 233.167 104.608C233.188 104.704 233.204 104.805 233.215 104.912C233.236 105.019 233.247 105.184 233.247 105.408L232.447 104.624C232.681 104.123 232.98 103.696 233.343 103.344C233.716 102.992 234.143 102.725 234.623 102.544C235.113 102.352 235.657 102.256 236.255 102.256C237.065 102.256 237.775 102.421 238.383 102.752C239.001 103.072 239.481 103.525 239.823 104.112C240.164 104.699 240.335 105.365 240.335 106.112C240.335 106.923 240.132 107.637 239.727 108.256C239.321 108.864 238.756 109.339 238.031 109.68C237.316 110.021 236.484 110.192 235.535 110.192ZM235.663 108.256C236.079 108.256 236.447 108.165 236.767 107.984C237.087 107.792 237.332 107.541 237.503 107.232C237.684 106.912 237.775 106.555 237.775 106.16C237.775 105.776 237.684 105.435 237.503 105.136C237.332 104.837 237.087 104.603 236.767 104.432C236.447 104.261 236.073 104.176 235.647 104.176C235.231 104.176 234.857 104.261 234.527 104.432C234.196 104.592 233.94 104.816 233.759 105.104C233.577 105.392 233.487 105.728 233.487 106.112C233.487 106.507 233.577 106.869 233.759 107.2C233.951 107.52 234.207 107.776 234.527 107.968C234.857 108.16 235.236 108.256 235.663 108.256ZM242.028 110V101.392H244.508V106.512L248.7 101.392H250.988V110H248.508V104.88L244.332 110H242.028ZM252.3 109.984L252.428 107.936C252.492 107.947 252.556 107.957 252.62 107.968C252.684 107.968 252.742 107.968 252.796 107.968C253.094 107.968 253.329 107.883 253.5 107.712C253.67 107.541 253.798 107.312 253.884 107.024C253.969 106.725 254.028 106.389 254.06 106.016C254.102 105.643 254.134 105.253 254.156 104.848L254.284 101.392H261.644V110H259.148V102.832L259.708 103.44H255.932L256.46 102.8L256.348 104.96C256.316 105.728 256.252 106.432 256.156 107.072C256.07 107.712 255.926 108.267 255.724 108.736C255.521 109.195 255.249 109.552 254.908 109.808C254.566 110.053 254.129 110.176 253.596 110.176C253.404 110.176 253.201 110.16 252.988 110.128C252.774 110.096 252.545 110.048 252.3 109.984ZM264.044 110V101.392H266.524V106.512L270.716 101.392H273.004V110H270.524V104.88L266.348 110H264.044ZM277.243 110V102.864L277.803 103.44H274.331V101.392H282.635V103.44H279.163L279.723 102.864V110H277.243ZM289.118 110V108.32L288.958 107.952V104.944C288.958 104.411 288.792 103.995 288.462 103.696C288.142 103.397 287.646 103.248 286.974 103.248C286.515 103.248 286.062 103.323 285.614 103.472C285.176 103.611 284.803 103.803 284.494 104.048L283.598 102.304C284.067 101.973 284.632 101.717 285.294 101.536C285.955 101.355 286.627 101.264 287.31 101.264C288.622 101.264 289.64 101.573 290.366 102.192C291.091 102.811 291.454 103.776 291.454 105.088V110H289.118ZM286.494 110.128C285.822 110.128 285.246 110.016 284.766 109.792C284.286 109.557 283.918 109.243 283.662 108.848C283.406 108.453 283.278 108.011 283.278 107.52C283.278 107.008 283.4 106.56 283.646 106.176C283.902 105.792 284.302 105.493 284.846 105.28C285.39 105.056 286.099 104.944 286.974 104.944H289.262V106.4H287.246C286.659 106.4 286.254 106.496 286.03 106.688C285.816 106.88 285.71 107.12 285.71 107.408C285.71 107.728 285.832 107.984 286.078 108.176C286.334 108.357 286.68 108.448 287.118 108.448C287.534 108.448 287.907 108.352 288.238 108.16C288.568 107.957 288.808 107.664 288.958 107.28L289.342 108.432C289.16 108.987 288.83 109.408 288.35 109.696C287.87 109.984 287.251 110.128 286.494 110.128ZM293.622 110V101.392H296.102V107.952H299.574V101.392H302.07V110H293.622ZM300.998 111.856V109.968L301.574 110H299.574V107.952H303.318V111.856H300.998ZM304.888 110V101.392H307.368V106.512L311.56 101.392H313.848V110H311.368V104.88L307.192 110H304.888ZM316.247 110V101.392H318.727V106.512L322.919 101.392H325.207V110H322.727V104.88L318.551 110H316.247Z"
        fill="white" />
    <path
        d="M382.188 52C370.149 52 360.388 61.7604 360.388 73.7998C360.389 85.839 370.149 95.5986 382.188 95.5986C394.227 95.5984 403.987 85.8388 403.987 73.7998C403.987 61.7605 394.227 52.0003 382.188 52Z"
        stroke="#DBF8BF" stroke-width="10" />
    <path
        d="M349 48C356.691 38.255 368.609 32 381.987 32C389.844 32 397.198 34.1576 403.487 37.9127L392.487 55.5"
        stroke="#DBF8BF" stroke-width="10" />
    <path d="M408.487 106.586C414.814 101.435 419.612 94.4775 422.096 86.5L403.487 80"
        stroke="#DBF8BF" stroke-width="10" />
    <path
        d="M424.102 22C420.725 22.0002 417.987 24.7382 417.987 28.1152C417.988 31.4922 420.725 34.2293 424.102 34.2295C427.479 34.2295 430.217 31.4923 430.217 28.1152C430.217 24.7381 427.479 22 424.102 22Z"
        stroke="#DBF8BF" stroke-width="10" />
</svg>