<svg width="383" height="134" viewBox="0 0 383 134" fill="none" xmlns="http://www.w3.org/2000/svg">
    <defs>
        <linearGradient id="myGradient" x1="0%" y1="0%" x2="0%" y2="100%">
            <stop offset="5%" style="stop-color:#33bdef; stop-opacity:1" />
            <stop offset="100%" style="stop-color:#019ad2; stop-opacity:1" />
        </linearGradient>
    </defs>
    <path
        d="M382.058 109V25C382.058 11.1929 370.865 0 357.058 0H73.933C65.0331 0 56.8042 4.73152 52.3269 12.4233L3.43137 96.4233C-6.27003 113.09 5.75311 134 25.0375 134H357.058C370.865 134 382.058 122.807 382.058 109Z"
        fill="url(#myGradient)" />
    <path
        d="M314.581 58.8268C302.542 58.8268 292.781 68.5872 292.781 80.6266C292.782 92.6658 302.542 102.425 314.581 102.425C326.62 102.425 336.38 92.6656 336.38 80.6266C336.38 68.5873 326.62 58.827 314.581 58.8268Z"
        stroke="#A7E7FE" stroke-width="10" />
    <path
        d="M289.094 55.0158C287.141 56.9684 283.975 56.9684 282.023 55.0158C280.07 53.0632 280.07 49.8973 282.023 47.9447L285.558 51.4803L289.094 55.0158ZM285.558 51.4803L282.023 47.9447C285.874 44.0931 295.144 36.455 313.551 37.6411L313.229 42.6307L312.908 47.6204C298.104 46.6665 291.497 52.6132 289.094 55.0158L285.558 51.4803ZM342.738 105.326L338.241 103.141L343.139 93.0591L347.637 95.244L352.134 97.429L347.236 107.511L342.738 105.326ZM347.637 95.244L343.139 93.0591C345.612 87.9682 341.392 82.1819 335.789 82.9823L335.082 78.0326L334.374 73.0828C347.912 71.149 358.11 85.129 352.134 97.429L347.637 95.244ZM313.229 42.6307L313.551 37.6411C320.722 38.1032 325.855 42.5699 328.148 48.2351C330.395 53.7878 329.975 60.5286 326.5 66.1967L322.238 63.5832L317.975 60.9697C319.798 57.9969 319.931 54.5874 318.878 51.987C317.871 49.4991 315.851 47.81 312.908 47.6204L313.229 42.6307Z"
        fill="#A7E7FE" />
    <path
        d="M337.38 28C334.003 28.0002 331.265 30.7382 331.265 34.1152C331.266 37.4922 334.003 40.2293 337.38 40.2295C340.757 40.2295 343.495 37.4923 343.495 34.1152C343.495 30.7381 340.757 28 337.38 28Z"
        stroke="#A7E7FE" stroke-width="10" />
    <path
        d="M92.1224 88V40.81L95.0084 43.696H74.7283V33.4H122.074V43.696H101.794L104.602 40.81V88H92.1224ZM155.065 88.936C150.853 88.936 146.927 88.26 143.287 86.908C139.699 85.504 136.579 83.528 133.927 80.98C131.275 78.432 129.195 75.442 127.687 72.01C126.231 68.578 125.503 64.808 125.503 60.7C125.503 56.592 126.231 52.822 127.687 49.39C129.195 45.958 131.275 42.968 133.927 40.42C136.631 37.872 139.777 35.922 143.365 34.57C146.953 33.166 150.879 32.464 155.143 32.464C159.875 32.464 164.139 33.296 167.935 34.96C171.783 36.572 175.007 38.964 177.607 42.136L169.495 49.624C167.623 47.492 165.543 45.906 163.255 44.866C160.967 43.774 158.471 43.228 155.767 43.228C153.219 43.228 150.879 43.644 148.747 44.476C146.615 45.308 144.769 46.504 143.209 48.064C141.649 49.624 140.427 51.47 139.543 53.602C138.711 55.734 138.295 58.1 138.295 60.7C138.295 63.3 138.711 65.666 139.543 67.798C140.427 69.93 141.649 71.776 143.209 73.336C144.769 74.896 146.615 76.092 148.747 76.924C150.879 77.756 153.219 78.172 155.767 78.172C158.471 78.172 160.967 77.652 163.255 76.612C165.543 75.52 167.623 73.882 169.495 71.698L177.607 79.186C175.007 82.358 171.783 84.776 167.935 86.44C164.139 88.104 159.849 88.936 155.065 88.936ZM185.842 88V33.4H209.476C214.364 33.4 218.576 34.206 222.112 35.818C225.648 37.378 228.378 39.64 230.302 42.604C232.226 45.568 233.188 49.104 233.188 53.212C233.188 57.268 232.226 60.778 230.302 63.742C228.378 66.706 225.648 68.994 222.112 70.606C218.576 72.166 214.364 72.946 209.476 72.946H192.862L198.478 67.252V88H185.842ZM198.478 68.656L192.862 62.65H208.774C212.674 62.65 215.586 61.818 217.51 60.154C219.434 58.49 220.396 56.176 220.396 53.212C220.396 50.196 219.434 47.856 217.51 46.192C215.586 44.528 212.674 43.696 208.774 43.696H192.862L198.478 37.69V68.656Z"
        fill="white" />
    <path
        d="M35.4103 108.168C34.6543 108.168 33.9497 108.047 33.2963 107.804C32.6523 107.552 32.0923 107.197 31.6163 106.74C31.1403 106.283 30.767 105.746 30.4963 105.13C30.235 104.514 30.1043 103.837 30.1043 103.1C30.1043 102.363 30.235 101.686 30.4963 101.07C30.767 100.454 31.1403 99.9173 31.6163 99.46C32.1017 99.0027 32.6663 98.6527 33.3103 98.41C33.9543 98.158 34.659 98.032 35.4244 98.032C36.2737 98.032 37.039 98.1813 37.7203 98.48C38.411 98.7693 38.9897 99.1987 39.4563 99.768L38.0004 101.112C37.6644 100.729 37.291 100.445 36.8803 100.258C36.4697 100.062 36.0217 99.964 35.5363 99.964C35.079 99.964 34.659 100.039 34.2763 100.188C33.8937 100.337 33.5623 100.552 33.2823 100.832C33.0023 101.112 32.783 101.443 32.6243 101.826C32.475 102.209 32.4003 102.633 32.4003 103.1C32.4003 103.567 32.475 103.991 32.6243 104.374C32.783 104.757 33.0023 105.088 33.2823 105.368C33.5623 105.648 33.8937 105.863 34.2763 106.012C34.659 106.161 35.079 106.236 35.5363 106.236C36.0217 106.236 36.4697 106.143 36.8803 105.956C37.291 105.76 37.6644 105.466 38.0004 105.074L39.4563 106.418C38.9897 106.987 38.411 107.421 37.7203 107.72C37.039 108.019 36.269 108.168 35.4103 108.168ZM42.1715 108V101.756L42.6615 102.26H39.6235V100.468H46.8895V102.26H43.8515L44.3415 101.756V108H42.1715ZM52.5617 108V106.53L52.4217 106.208V103.576C52.4217 103.109 52.277 102.745 51.9877 102.484C51.7077 102.223 51.2737 102.092 50.6857 102.092C50.2843 102.092 49.8877 102.157 49.4957 102.288C49.113 102.409 48.7863 102.577 48.5157 102.792L47.7317 101.266C48.1423 100.977 48.637 100.753 49.2157 100.594C49.7943 100.435 50.3823 100.356 50.9797 100.356C52.1277 100.356 53.019 100.627 53.6537 101.168C54.2883 101.709 54.6057 102.554 54.6057 103.702V108H52.5617ZM50.2657 108.112C49.6777 108.112 49.1737 108.014 48.7537 107.818C48.3337 107.613 48.0117 107.337 47.7877 106.992C47.5637 106.647 47.4517 106.259 47.4517 105.83C47.4517 105.382 47.559 104.99 47.7737 104.654C47.9977 104.318 48.3477 104.057 48.8237 103.87C49.2997 103.674 49.9203 103.576 50.6857 103.576H52.6877V104.85H50.9237C50.4103 104.85 50.0557 104.934 49.8597 105.102C49.673 105.27 49.5797 105.48 49.5797 105.732C49.5797 106.012 49.687 106.236 49.9017 106.404C50.1257 106.563 50.429 106.642 50.8117 106.642C51.1757 106.642 51.5023 106.558 51.7917 106.39C52.081 106.213 52.291 105.956 52.4217 105.62L52.7577 106.628C52.599 107.113 52.3097 107.482 51.8897 107.734C51.4697 107.986 50.9283 108.112 50.2657 108.112ZM60.9409 108.112C60.3062 108.112 59.7509 107.972 59.2749 107.692C58.7989 107.412 58.4255 106.987 58.1549 106.418C57.8935 105.839 57.7629 105.111 57.7629 104.234C57.7629 103.347 57.8889 102.619 58.1409 102.05C58.3929 101.481 58.7569 101.056 59.2329 100.776C59.7089 100.496 60.2782 100.356 60.9409 100.356C61.6502 100.356 62.2849 100.519 62.8449 100.846C63.4142 101.163 63.8622 101.611 64.1889 102.19C64.5249 102.769 64.6929 103.45 64.6929 104.234C64.6929 105.027 64.5249 105.713 64.1889 106.292C63.8622 106.871 63.4142 107.319 62.8449 107.636C62.2849 107.953 61.6502 108.112 60.9409 108.112ZM56.4889 110.716V100.468H58.5749V102.008L58.5329 104.248L58.6729 106.474V110.716H56.4889ZM60.5629 106.32C60.9269 106.32 61.2489 106.236 61.5289 106.068C61.8182 105.9 62.0469 105.662 62.2149 105.354C62.3922 105.037 62.4809 104.663 62.4809 104.234C62.4809 103.795 62.3922 103.422 62.2149 103.114C62.0469 102.806 61.8182 102.568 61.5289 102.4C61.2489 102.232 60.9269 102.148 60.5629 102.148C60.1989 102.148 59.8722 102.232 59.5829 102.4C59.2935 102.568 59.0649 102.806 58.8969 103.114C58.7289 103.422 58.6449 103.795 58.6449 104.234C58.6449 104.663 58.7289 105.037 58.8969 105.354C59.0649 105.662 59.2935 105.9 59.5829 106.068C59.8722 106.236 60.1989 106.32 60.5629 106.32ZM67.5601 108V101.756L68.0501 102.26H65.0121V100.468H72.2781V102.26H69.2401L69.7301 101.756V108H67.5601ZM82.5872 107.02V102.26H80.1232L80.0812 103.226C80.0625 103.627 80.0392 104.01 80.0112 104.374C79.9832 104.738 79.9272 105.069 79.8432 105.368C79.7685 105.657 79.6565 105.905 79.5072 106.11C79.3578 106.306 79.1572 106.441 78.9052 106.516L76.7492 106.208C77.0198 106.208 77.2392 106.129 77.4072 105.97C77.5752 105.802 77.7058 105.573 77.7992 105.284C77.8925 104.985 77.9625 104.649 78.0092 104.276C78.0558 103.893 78.0885 103.492 78.1072 103.072L78.2052 100.468H84.7712V107.02H82.5872ZM76.4972 109.624V106.208H85.8492V109.624H83.8192V108H78.5272V109.624H76.4972ZM86.2716 107.986L86.3836 106.194C86.4396 106.203 86.4956 106.213 86.5516 106.222C86.6076 106.222 86.6589 106.222 86.7056 106.222C86.9669 106.222 87.1723 106.147 87.3216 105.998C87.4709 105.849 87.5829 105.648 87.6576 105.396C87.7323 105.135 87.7836 104.841 87.8116 104.514C87.8489 104.187 87.8769 103.847 87.8956 103.492L88.0076 100.468H94.4476V108H92.2636V101.728L92.7536 102.26H89.4496L89.9116 101.7L89.8136 103.59C89.7856 104.262 89.7296 104.878 89.6456 105.438C89.5709 105.998 89.4449 106.483 89.2676 106.894C89.0903 107.295 88.8523 107.608 88.5536 107.832C88.2549 108.047 87.8723 108.154 87.4056 108.154C87.2376 108.154 87.0603 108.14 86.8736 108.112C86.6869 108.084 86.4863 108.042 86.2716 107.986ZM101.294 108V105.494L101.602 105.844H99.5158C98.4331 105.844 97.5838 105.62 96.9678 105.172C96.3518 104.724 96.0438 104.08 96.0438 103.24C96.0438 102.344 96.3658 101.658 97.0098 101.182C97.6631 100.706 98.5405 100.468 99.6418 100.468H103.24V108H101.294ZM95.9318 108L97.9338 105.13H100.16L98.2558 108H95.9318ZM101.294 104.822V101.686L101.602 102.246H99.6838C99.2358 102.246 98.8858 102.33 98.6338 102.498C98.3911 102.666 98.2698 102.937 98.2698 103.31C98.2698 104.029 98.7318 104.388 99.6558 104.388H101.602L101.294 104.822ZM109.304 108V100.468H113.154C114.096 100.468 114.834 100.641 115.366 100.986C115.898 101.322 116.164 101.798 116.164 102.414C116.164 103.03 115.912 103.515 115.408 103.87C114.913 104.215 114.255 104.388 113.434 104.388L113.658 103.884C114.572 103.884 115.254 104.052 115.702 104.388C116.159 104.724 116.388 105.214 116.388 105.858C116.388 106.521 116.136 107.043 115.632 107.426C115.128 107.809 114.358 108 113.322 108H109.304ZM111.306 106.516H113.14C113.541 106.516 113.84 106.451 114.036 106.32C114.241 106.18 114.344 105.97 114.344 105.69C114.344 105.401 114.25 105.191 114.064 105.06C113.877 104.92 113.583 104.85 113.182 104.85H111.306V106.516ZM111.306 103.562H112.958C113.34 103.562 113.625 103.492 113.812 103.352C114.008 103.212 114.106 103.011 114.106 102.75C114.106 102.479 114.008 102.279 113.812 102.148C113.625 102.017 113.34 101.952 112.958 101.952H111.306V103.562ZM122.521 108V106.53L122.381 106.208V103.576C122.381 103.109 122.236 102.745 121.947 102.484C121.667 102.223 121.233 102.092 120.645 102.092C120.243 102.092 119.847 102.157 119.455 102.288C119.072 102.409 118.745 102.577 118.475 102.792L117.691 101.266C118.101 100.977 118.596 100.753 119.175 100.594C119.753 100.435 120.341 100.356 120.939 100.356C122.087 100.356 122.978 100.627 123.613 101.168C124.247 101.709 124.565 102.554 124.565 103.702V108H122.521ZM120.225 108.112C119.637 108.112 119.133 108.014 118.713 107.818C118.293 107.613 117.971 107.337 117.747 106.992C117.523 106.647 117.411 106.259 117.411 105.83C117.411 105.382 117.518 104.99 117.733 104.654C117.957 104.318 118.307 104.057 118.783 103.87C119.259 103.674 119.879 103.576 120.645 103.576H122.647V104.85H120.883C120.369 104.85 120.015 104.934 119.819 105.102C119.632 105.27 119.539 105.48 119.539 105.732C119.539 106.012 119.646 106.236 119.861 106.404C120.085 106.563 120.388 106.642 120.771 106.642C121.135 106.642 121.461 106.558 121.751 106.39C122.04 106.213 122.25 105.956 122.381 105.62L122.717 106.628C122.558 107.113 122.269 107.482 121.849 107.734C121.429 107.986 120.887 108.112 120.225 108.112ZM131.6 106.208L131.124 106.712V100.468H133.308V106.712L132.804 106.208H136.276L135.786 106.712V100.468H137.956V108H126.462V100.468H128.632V106.712L128.142 106.208H131.6ZM143.734 108.112C142.875 108.112 142.119 107.944 141.466 107.608C140.822 107.272 140.322 106.815 139.968 106.236C139.613 105.648 139.436 104.981 139.436 104.234C139.436 103.478 139.608 102.811 139.954 102.232C140.308 101.644 140.789 101.187 141.396 100.86C142.002 100.524 142.688 100.356 143.454 100.356C144.191 100.356 144.854 100.515 145.442 100.832C146.039 101.14 146.51 101.588 146.856 102.176C147.201 102.755 147.374 103.45 147.374 104.262C147.374 104.346 147.369 104.444 147.36 104.556C147.35 104.659 147.341 104.757 147.332 104.85H141.214V103.576H146.184L145.344 103.954C145.344 103.562 145.264 103.221 145.106 102.932C144.947 102.643 144.728 102.419 144.448 102.26C144.168 102.092 143.841 102.008 143.468 102.008C143.094 102.008 142.763 102.092 142.474 102.26C142.194 102.419 141.974 102.647 141.816 102.946C141.657 103.235 141.578 103.581 141.578 103.982V104.318C141.578 104.729 141.666 105.093 141.844 105.41C142.03 105.718 142.287 105.956 142.614 106.124C142.95 106.283 143.342 106.362 143.79 106.362C144.191 106.362 144.541 106.301 144.84 106.18C145.148 106.059 145.428 105.877 145.68 105.634L146.842 106.894C146.496 107.286 146.062 107.589 145.54 107.804C145.017 108.009 144.415 108.112 143.734 108.112ZM149.048 108V100.468H151.218V104.948L154.886 100.468H156.888V108H154.718V103.52L151.064 108H149.048ZM152.828 99.656C152.006 99.656 151.39 99.4787 150.98 99.124C150.569 98.76 150.359 98.214 150.35 97.486H151.778C151.787 97.8033 151.876 98.0553 152.044 98.242C152.212 98.4287 152.468 98.522 152.814 98.522C153.15 98.522 153.406 98.4287 153.584 98.242C153.77 98.0553 153.864 97.8033 153.864 97.486H155.32C155.32 98.214 155.11 98.76 154.69 99.124C154.27 99.4787 153.649 99.656 152.828 99.656ZM167.39 108.112C166.755 108.112 166.2 107.972 165.724 107.692C165.248 107.412 164.875 106.987 164.604 106.418C164.343 105.839 164.212 105.111 164.212 104.234C164.212 103.347 164.338 102.619 164.59 102.05C164.842 101.481 165.206 101.056 165.682 100.776C166.158 100.496 166.727 100.356 167.39 100.356C168.099 100.356 168.734 100.519 169.294 100.846C169.863 101.163 170.311 101.611 170.638 102.19C170.974 102.769 171.142 103.45 171.142 104.234C171.142 105.027 170.974 105.713 170.638 106.292C170.311 106.871 169.863 107.319 169.294 107.636C168.734 107.953 168.099 108.112 167.39 108.112ZM162.938 110.716V100.468H165.024V102.008L164.982 104.248L165.122 106.474V110.716H162.938ZM167.012 106.32C167.376 106.32 167.698 106.236 167.978 106.068C168.267 105.9 168.496 105.662 168.664 105.354C168.841 105.037 168.93 104.663 168.93 104.234C168.93 103.795 168.841 103.422 168.664 103.114C168.496 102.806 168.267 102.568 167.978 102.4C167.698 102.232 167.376 102.148 167.012 102.148C166.648 102.148 166.321 102.232 166.032 102.4C165.743 102.568 165.514 102.806 165.346 103.114C165.178 103.422 165.094 103.795 165.094 104.234C165.094 104.663 165.178 105.037 165.346 105.354C165.514 105.662 165.743 105.9 166.032 106.068C166.321 106.236 166.648 106.32 167.012 106.32ZM176.355 108.112C175.496 108.112 174.74 107.944 174.087 107.608C173.443 107.272 172.943 106.815 172.589 106.236C172.234 105.648 172.057 104.981 172.057 104.234C172.057 103.478 172.229 102.811 172.575 102.232C172.929 101.644 173.41 101.187 174.017 100.86C174.623 100.524 175.309 100.356 176.075 100.356C176.812 100.356 177.475 100.515 178.063 100.832C178.66 101.14 179.131 101.588 179.477 102.176C179.822 102.755 179.995 103.45 179.995 104.262C179.995 104.346 179.99 104.444 179.981 104.556C179.971 104.659 179.962 104.757 179.953 104.85H173.835V103.576H178.805L177.965 103.954C177.965 103.562 177.885 103.221 177.727 102.932C177.568 102.643 177.349 102.419 177.069 102.26C176.789 102.092 176.462 102.008 176.089 102.008C175.715 102.008 175.384 102.092 175.095 102.26C174.815 102.419 174.595 102.647 174.437 102.946C174.278 103.235 174.199 103.581 174.199 103.982V104.318C174.199 104.729 174.287 105.093 174.465 105.41C174.651 105.718 174.908 105.956 175.235 106.124C175.571 106.283 175.963 106.362 176.411 106.362C176.812 106.362 177.162 106.301 177.461 106.18C177.769 106.059 178.049 105.877 178.301 105.634L179.463 106.894C179.117 107.286 178.683 107.589 178.161 107.804C177.638 108.009 177.036 108.112 176.355 108.112ZM185.972 108V106.53L185.832 106.208V103.576C185.832 103.109 185.687 102.745 185.398 102.484C185.118 102.223 184.684 102.092 184.096 102.092C183.694 102.092 183.298 102.157 182.906 102.288C182.523 102.409 182.196 102.577 181.926 102.792L181.142 101.266C181.552 100.977 182.047 100.753 182.626 100.594C183.204 100.435 183.792 100.356 184.39 100.356C185.538 100.356 186.429 100.627 187.064 101.168C187.698 101.709 188.016 102.554 188.016 103.702V108H185.972ZM183.676 108.112C183.088 108.112 182.584 108.014 182.164 107.818C181.744 107.613 181.422 107.337 181.198 106.992C180.974 106.647 180.862 106.259 180.862 105.83C180.862 105.382 180.969 104.99 181.184 104.654C181.408 104.318 181.758 104.057 182.234 103.87C182.71 103.674 183.33 103.576 184.096 103.576H186.098V104.85H184.334C183.82 104.85 183.466 104.934 183.27 105.102C183.083 105.27 182.99 105.48 182.99 105.732C182.99 106.012 183.097 106.236 183.312 106.404C183.536 106.563 183.839 106.642 184.222 106.642C184.586 106.642 184.912 106.558 185.202 106.39C185.491 106.213 185.701 105.956 185.832 105.62L186.168 106.628C186.009 107.113 185.72 107.482 185.3 107.734C184.88 107.986 184.338 108.112 183.676 108.112ZM193.651 108.168C193.035 108.168 192.475 108.079 191.971 107.902C191.467 107.715 191.028 107.431 190.655 107.048C190.291 106.656 190.006 106.157 189.801 105.55C189.605 104.943 189.507 104.22 189.507 103.38C189.507 102.783 189.558 102.237 189.661 101.742C189.764 101.247 189.918 100.799 190.123 100.398C190.328 99.9873 190.59 99.628 190.907 99.32C191.234 99.0027 191.612 98.7413 192.041 98.536C192.48 98.3213 192.974 98.158 193.525 98.046L197.109 97.332L197.403 99.208L194.239 99.838C194.052 99.8753 193.838 99.9267 193.595 99.992C193.362 100.048 193.124 100.137 192.881 100.258C192.648 100.379 192.428 100.552 192.223 100.776C192.027 100.991 191.868 101.275 191.747 101.63C191.626 101.975 191.565 102.405 191.565 102.918C191.565 103.077 191.57 103.198 191.579 103.282C191.598 103.366 191.612 103.455 191.621 103.548C191.64 103.641 191.649 103.786 191.649 103.982L190.949 103.296C191.154 102.857 191.416 102.484 191.733 102.176C192.06 101.868 192.433 101.635 192.853 101.476C193.282 101.308 193.758 101.224 194.281 101.224C194.99 101.224 195.611 101.369 196.143 101.658C196.684 101.938 197.104 102.335 197.403 102.848C197.702 103.361 197.851 103.945 197.851 104.598C197.851 105.307 197.674 105.933 197.319 106.474C196.964 107.006 196.47 107.421 195.835 107.72C195.21 108.019 194.482 108.168 193.651 108.168ZM193.763 106.474C194.127 106.474 194.449 106.395 194.729 106.236C195.009 106.068 195.224 105.849 195.373 105.578C195.532 105.298 195.611 104.985 195.611 104.64C195.611 104.304 195.532 104.005 195.373 103.744C195.224 103.483 195.009 103.277 194.729 103.128C194.449 102.979 194.122 102.904 193.749 102.904C193.385 102.904 193.058 102.979 192.769 103.128C192.48 103.268 192.256 103.464 192.097 103.716C191.938 103.968 191.859 104.262 191.859 104.598C191.859 104.943 191.938 105.261 192.097 105.55C192.265 105.83 192.489 106.054 192.769 106.222C193.058 106.39 193.39 106.474 193.763 106.474ZM199.333 108V100.468H201.503V104.948L205.171 100.468H207.173V108H205.003V103.52L201.349 108H199.333ZM208.32 107.986L208.432 106.194C208.488 106.203 208.544 106.213 208.6 106.222C208.656 106.222 208.708 106.222 208.754 106.222C209.016 106.222 209.221 106.147 209.37 105.998C209.52 105.849 209.632 105.648 209.706 105.396C209.781 105.135 209.832 104.841 209.86 104.514C209.898 104.187 209.926 103.847 209.944 103.492L210.056 100.468H216.496V108H214.312V101.728L214.802 102.26H211.498L211.96 101.7L211.862 103.59C211.834 104.262 211.778 104.878 211.694 105.438C211.62 105.998 211.494 106.483 211.316 106.894C211.139 107.295 210.901 107.608 210.602 107.832C210.304 108.047 209.921 108.154 209.454 108.154C209.286 108.154 209.109 108.14 208.922 108.112C208.736 108.084 208.535 108.042 208.32 107.986ZM218.597 108V100.468H220.767V104.948L224.435 100.468H226.437V108H224.267V103.52L220.613 108H218.597ZM230.146 108V101.756L230.636 102.26H227.598V100.468H234.864V102.26H231.826L232.316 101.756V108H230.146ZM240.536 108V106.53L240.396 106.208V103.576C240.396 103.109 240.252 102.745 239.962 102.484C239.682 102.223 239.248 102.092 238.66 102.092C238.259 102.092 237.862 102.157 237.47 102.288C237.088 102.409 236.761 102.577 236.49 102.792L235.706 101.266C236.117 100.977 236.612 100.753 237.19 100.594C237.769 100.435 238.357 100.356 238.954 100.356C240.102 100.356 240.994 100.627 241.628 101.168C242.263 101.709 242.58 102.554 242.58 103.702V108H240.536ZM238.24 108.112C237.652 108.112 237.148 108.014 236.728 107.818C236.308 107.613 235.986 107.337 235.762 106.992C235.538 106.647 235.426 106.259 235.426 105.83C235.426 105.382 235.534 104.99 235.748 104.654C235.972 104.318 236.322 104.057 236.798 103.87C237.274 103.674 237.895 103.576 238.66 103.576H240.662V104.85H238.898C238.385 104.85 238.03 104.934 237.834 105.102C237.648 105.27 237.554 105.48 237.554 105.732C237.554 106.012 237.662 106.236 237.876 106.404C238.1 106.563 238.404 106.642 238.786 106.642C239.15 106.642 239.477 106.558 239.766 106.39C240.056 106.213 240.266 105.956 240.396 105.62L240.732 106.628C240.574 107.113 240.284 107.482 239.864 107.734C239.444 107.986 238.903 108.112 238.24 108.112ZM244.477 108V100.468H246.647V106.208H249.685V100.468H251.869V108H244.477ZM250.931 109.624V107.972L251.435 108H249.685V106.208H252.961V109.624H250.931ZM254.335 108V100.468H256.505V104.948L260.173 100.468H262.175V108H260.005V103.52L256.351 108H254.335ZM264.274 108V100.468H266.444V104.948L270.112 100.468H272.114V108H269.944V103.52L266.29 108H264.274Z"
        fill="white" />
</svg>