<svg width="180" height="180" viewBox="0 0 180 180" fill="none" xmlns="http://www.w3.org/2000/svg">
    <rect width="180" height="180" rx="57" fill="#49AED3" />
    <path
        d="M79.1835 78.7082C65.8081 78.7083 54.9648 89.5514 54.9648 102.927C54.9649 116.302 65.8081 127.146 79.1835 127.146C92.559 127.146 103.402 116.302 103.402 102.927C103.402 89.5514 92.5591 78.7082 79.1835 78.7082Z"
        stroke="#B6F6D9" stroke-width="10" />
    <path
        d="M43 74.7985C51.3858 64.1737 64.3789 57.3541 78.9649 57.3541C87.5316 57.3541 95.5488 59.7065 102.406 63.8006L90.4128 82.9755"
        stroke="#B6F6D9" stroke-width="10" />
    <path d="M107.857 138.673C114.755 133.057 119.986 125.472 122.694 116.774L102.406 109.687"
        stroke="#B6F6D9" stroke-width="10" />
    <path
        d="M124.882 46C120.951 46 117.764 49.1869 117.764 53.1182C117.764 57.0495 120.951 60.2363 124.882 60.2363C128.813 60.2363 132 57.0494 132 53.1182C132 49.1869 128.813 46.0001 124.882 46Z"
        stroke="#B6F6D9" stroke-width="10" />
</svg>