<svg width="34" height="34" viewBox="0 0 34 34" fill="none" xmlns="http://www.w3.org/2000/svg">
<path opacity="0.3" d="M0 3.95349C0 1.77004 1.77004 0 3.95349 0H30.0465C32.23 0 34 1.77004 34 3.95349V30.0465C34 32.23 32.23 34 30.0465 34H3.95349C1.77004 34 0 32.23 0 30.0465V3.95349Z" fill="transparent"/>
<circle cx="24.6503" cy="9.61077" r="1.61078" fill="#666666"/>
<mask id="mask0_5165_2098" style="mask-type:alpha" maskUnits="userSpaceOnUse" x="10" y="11" width="14" height="13">
<rect x="10.2612" y="11.8147" width="13.6457" height="12.0403" fill="#D9D9D9"/>
</mask>
<g mask="url(#mask0_5165_2098)">
<line x1="11.7612" y1="11.8147" x2="11.7612" y2="23.855" stroke="#666666" stroke-width="3"/>
<line x1="10.2612" y1="12.7228" x2="19.8935" y2="12.7228" stroke="#666666" stroke-width="3"/>
<line x1="10.2612" y1="18.3416" x2="19.8935" y2="18.3416" stroke="#666666" stroke-width="3"/>
<path d="M19.6953 12.8267C23.4481 12.8267 23.4481 18.4289 19.6953 18.4289" stroke="#666666" stroke-width="3"/>
<line x1="19.6297" y1="18.368" x2="22.8405" y2="24.7895" stroke="#666666" stroke-width="3"/>
</g>
</svg>
